<svg version="1.2" baseProfile="tiny-ps" xmlns="http://www.w3.org/2000/svg" viewBox="0 0 80 80" width="80" height="80">
	<title>Breezy</title>
	<defs>
		<linearGradient id="grd1" gradientUnits="userSpaceOnUse"  x1="45.257" y1="60.587" x2="55.199" y2="50.645">
			<stop offset="0" stop-color="#d6f2fd"  />
			<stop offset="1" stop-color="#e5f5fd"  />
		</linearGradient>
		<linearGradient id="grd2" gradientUnits="userSpaceOnUse"  x1="44.467" y1="42.991" x2="67.457" y2="20">
			<stop offset="0" stop-color="#d6f2fd"  />
			<stop offset="1" stop-color="#e5f5fd"  />
		</linearGradient>
		<linearGradient id="grd3" gradientUnits="userSpaceOnUse"  x1="17.987" y1="71.943" x2="38.013" y2="51.918">
			<stop offset="0" stop-color="#d6f2fd"  />
			<stop offset="1" stop-color="#e5f5fd"  />
		</linearGradient>
	</defs>
	<style>
		tspan { white-space:pre }
		.shp0 { fill: url(#grd1) } 
		.shp1 { fill: #ffffff } 
		.shp2 { fill: url(#grd2) } 
		.shp3 { fill: url(#grd3) } 
	</style>
	<g id="Blizzard">
		<path id="blizzard" class="shp0" d="M55.2 55.62C55.2 58.36 52.97 60.59 50.23 60.59C47.48 60.59 45.26 58.36 45.26 55.62C45.26 52.87 47.48 50.64 50.23 50.64C52.97 50.64 55.2 52.87 55.2 55.62Z" />
		<path id="cloud-large" class="shp1" d="M53.24 42.96C59.17 42.96 63.97 38.24 63.97 32.41C63.97 26.59 59.17 21.87 53.24 21.87C53.21 21.87 53.17 21.88 53.13 21.88C52.18 13.47 44.93 6.93 36.12 6.93C29.17 6.93 23.19 11.01 20.51 16.87C20.42 16.87 20.34 16.86 20.25 16.86C12.92 16.86 6.98 22.7 6.98 29.91C6.98 37.11 12.92 42.96 20.25 42.96" />
		<path id="cloud-small-dark" class="shp2" d="M67.18 42.99C70.92 42.99 73.95 39.98 73.95 36.26C73.95 32.55 70.92 29.53 67.18 29.53C67.16 29.53 67.13 29.54 67.11 29.54C66.51 24.17 61.93 20 56.37 20C51.98 20 48.2 22.6 46.51 26.34C46.46 26.34 46.41 26.34 46.35 26.34C41.72 26.34 37.97 30.06 37.97 34.66C37.97 39.26 41.72 42.99 46.35 42.99" />
		<path id="snow-04" class="shp3" d="M20 53.89C20 54.98 19.1 55.87 18 55.87C16.9 55.87 16 54.98 16 53.89C16 52.8 16.9 51.92 18 51.92C19.1 51.92 20 52.8 20 53.89ZM30 53.89C30 54.98 29.1 55.87 28 55.87C26.9 55.87 26 54.98 26 53.89C26 52.8 26.9 51.92 28 51.92C29.1 51.92 30 52.8 30 53.89ZM40 53.89C40 54.98 39.1 55.87 38 55.87C36.9 55.87 36 54.98 36 53.89C36 52.8 36.9 51.92 38 51.92C39.1 51.92 40 52.8 40 53.89ZM20 69.97C20 71.06 19.1 71.94 18 71.94C16.9 71.94 16 71.06 16 69.97C16 68.88 16.9 67.99 18 67.99C19.1 67.99 20 68.88 20 69.97ZM30 69.97C30 71.06 29.1 71.94 28 71.94C26.9 71.94 26 71.06 26 69.97C26 68.88 26.9 67.99 28 67.99C29.1 67.99 30 68.88 30 69.97ZM25 62.07C25 63.16 24.1 64.04 23 64.04C21.9 64.04 21 63.16 21 62.07C21 60.98 21.9 60.1 23 60.1C24.1 60.1 25 60.98 25 62.07ZM35 62.07C35 63.16 34.1 64.04 33 64.04C31.9 64.04 31 63.16 31 62.07C31 60.98 31.9 60.1 33 60.1C34.1 60.1 35 60.98 35 62.07Z" />
	</g>
</svg>