<svg version="1.2" baseProfile="tiny-ps" xmlns="http://www.w3.org/2000/svg" viewBox="0 0 80 80" width="80" height="80">
	<title>Breezy</title>
	<defs>
		<linearGradient id="grd1" gradientUnits="userSpaceOnUse"  x1="47.257" y1="65.587" x2="57.199" y2="55.645">
			<stop offset="0" stop-color="#d6f2fd"  />
			<stop offset="1" stop-color="#e5f5fd"  />
		</linearGradient>
		<linearGradient id="grd2" gradientUnits="userSpaceOnUse"  x1="44.934" y1="31.949" x2="73.868" y2="3.016">
			<stop offset="0" stop-color="#00ccff"  />
			<stop offset="1" stop-color="#5ddefe"  />
		</linearGradient>
		<linearGradient id="grd3" gradientUnits="userSpaceOnUse"  x1="16.462" y1="47.956" x2="52.485" y2="11.933">
			<stop offset="0" stop-color="#d6f2fd"  />
			<stop offset="1" stop-color="#e5f5fd"  />
		</linearGradient>
		<linearGradient id="grd4" gradientUnits="userSpaceOnUse"  x1="19.987" y1="76.943" x2="40.013" y2="56.918">
			<stop offset="0" stop-color="#d6f2fd"  />
			<stop offset="1" stop-color="#e5f5fd"  />
		</linearGradient>
	</defs>
	<style>
		tspan { white-space:pre }
		.shp0 { fill: url(#grd1) } 
		.shp1 { fill: url(#grd2) } 
		.shp2 { fill: url(#grd3) } 
		.shp3 { fill: #ffffff } 
		.shp4 { fill: url(#grd4) } 
	</style>
	<g id="Blizzard Night">
		<path id="blizzard" class="shp0" d="M57.2 60.62C57.2 63.36 54.97 65.59 52.23 65.59C49.48 65.59 47.26 63.36 47.26 60.62C47.26 57.87 49.48 55.64 52.23 55.64C54.97 55.64 57.2 57.87 57.2 60.62Z" />
		<path id="moon-small" class="shp1" d="M59.68 31.95C51.55 31.95 44.93 25.34 44.93 17.21C44.93 10.67 49.32 4.85 55.61 3.04C55.88 2.97 56.17 3.04 56.37 3.24C56.56 3.44 56.64 3.73 56.56 4C56.22 5.21 56.04 6.43 56.04 7.64C56.04 14.92 61.96 20.84 69.24 20.84C70.45 20.84 71.68 20.67 72.88 20.32C73.15 20.25 73.44 20.32 73.64 20.52C73.84 20.72 73.92 21.01 73.84 21.28C72.03 27.56 66.21 31.95 59.68 31.95Z" />
		<path id="cloud-large-night" class="shp2" d="M52.24 47.96C58.17 47.96 62.97 43.24 62.97 37.41C62.97 31.59 58.17 26.87 52.24 26.87C52.21 26.87 52.17 26.88 52.13 26.88C51.18 18.47 43.93 11.93 35.12 11.93C28.17 11.93 22.19 16.01 19.51 21.87C19.42 21.87 19.34 21.86 19.25 21.86C11.92 21.86 5.98 27.7 5.98 34.91C5.98 42.11 11.92 47.96 19.25 47.96" />
		<path id="cloud-small" class="shp3" d="M66.18 47.99C69.92 47.99 72.95 44.98 72.95 41.26C72.95 37.55 69.92 34.53 66.18 34.53C66.16 34.53 66.13 34.54 66.11 34.54C65.51 29.17 60.93 25 55.37 25C50.98 25 47.2 27.6 45.51 31.34C45.46 31.34 45.41 31.34 45.35 31.34C40.72 31.34 36.97 35.06 36.97 39.66C36.97 44.26 40.72 47.99 45.35 47.99" />
		<path id="snow-04" class="shp4" d="M22 58.89C22 59.98 21.1 60.87 20 60.87C18.9 60.87 18 59.98 18 58.89C18 57.8 18.9 56.92 20 56.92C21.1 56.92 22 57.8 22 58.89ZM32 58.89C32 59.98 31.1 60.87 30 60.87C28.9 60.87 28 59.98 28 58.89C28 57.8 28.9 56.92 30 56.92C31.1 56.92 32 57.8 32 58.89ZM42 58.89C42 59.98 41.1 60.87 40 60.87C38.9 60.87 38 59.98 38 58.89C38 57.8 38.9 56.92 40 56.92C41.1 56.92 42 57.8 42 58.89ZM22 74.97C22 76.06 21.1 76.94 20 76.94C18.9 76.94 18 76.06 18 74.97C18 73.88 18.9 72.99 20 72.99C21.1 72.99 22 73.88 22 74.97ZM32 74.97C32 76.06 31.1 76.94 30 76.94C28.9 76.94 28 76.06 28 74.97C28 73.88 28.9 72.99 30 72.99C31.1 72.99 32 73.88 32 74.97ZM27 67.07C27 68.16 26.1 69.04 25 69.04C23.9 69.04 23 68.16 23 67.07C23 65.98 23.9 65.1 25 65.1C26.1 65.1 27 65.98 27 67.07ZM37 67.07C37 68.16 36.1 69.04 35 69.04C33.9 69.04 33 68.16 33 67.07C33 65.98 33.9 65.1 35 65.1C36.1 65.1 37 65.98 37 67.07Z" />
	</g>
</svg>