<svg version="1.2" baseProfile="tiny-ps" xmlns="http://www.w3.org/2000/svg" viewBox="0 0 80 80" width="80" height="80">
	<title>Breezy</title>
	<defs>
		<linearGradient id="grd1" gradientUnits="userSpaceOnUse"  x1="24.453" y1="55.972" x2="58.472" y2="21.954">
			<stop offset="0" stop-color="#00ccff"  />
			<stop offset="1" stop-color="#5ddefe"  />
		</linearGradient>
	</defs>
	<style>
		tspan { white-space:pre }
		.shp0 { fill: url(#grd1) } 
	</style>
	<g id="Breezy">
		<path id="breezy" class="shp0" d="M58.28 55.97C55.46 55.97 53.17 53.69 53.17 50.88C53.17 50.19 53.31 49.54 53.55 48.94L24.3 48.94C23.42 48.94 22.71 48.24 22.71 47.36C22.71 46.49 23.42 45.78 24.3 45.78L58.15 45.78C58.17 45.78 58.19 45.79 58.22 45.79C58.24 45.79 58.26 45.78 58.28 45.78C61.1 45.78 63.39 48.06 63.39 50.88C63.39 53.69 61.1 55.97 58.28 55.97ZM68.86 47.22C66.04 47.22 63.75 44.94 63.75 42.13C63.75 41.44 63.89 40.79 64.13 40.2L10.54 40.2C9.67 40.2 8.96 39.49 8.96 38.61C8.96 37.74 9.67 37.03 10.54 37.03L68.73 37.03C68.75 37.03 68.77 37.04 68.79 37.04C68.82 37.04 68.84 37.03 68.86 37.03C71.68 37.03 73.97 39.31 73.97 42.13C73.97 44.94 71.68 47.22 68.86 47.22ZM58.28 21.95C55.46 21.95 53.17 24.24 53.17 27.05C53.17 27.73 53.31 28.39 53.55 28.98L34.88 28.98C34 28.98 33.29 29.69 33.29 30.56C33.29 31.44 34 32.15 34.88 32.15L58.15 32.15C58.17 32.15 58.19 32.14 58.22 32.14C58.24 32.14 58.26 32.15 58.28 32.15C61.1 32.15 63.39 29.86 63.39 27.05C63.39 24.24 61.1 21.95 58.28 21.95Z" />
	</g>
</svg>