<svg version="1.2" baseProfile="tiny-ps" xmlns="http://www.w3.org/2000/svg" viewBox="0 0 80 80" width="80" height="80">
	<title>Breezy</title>
	<defs>
		<linearGradient id="grd1" gradientUnits="userSpaceOnUse"  x1="24.453" y1="51.972" x2="58.472" y2="17.954">
			<stop offset="0" stop-color="#00ccff"  />
			<stop offset="1" stop-color="#5ddefe"  />
		</linearGradient>
		<linearGradient id="grd2" gradientUnits="userSpaceOnUse"  x1="15" y1="62" x2="33" y2="44">
			<stop offset="0" stop-color="#d6f2fd"  />
			<stop offset="1" stop-color="#e5f5fd"  />
		</linearGradient>
	</defs>
	<style>
		tspan { white-space:pre }
		.shp0 { fill: url(#grd1) } 
		.shp1 { fill: url(#grd2) } 
	</style>
	<g id="Breezy Snow">
		<path id="breezy" class="shp0" d="M58.28 51.97C55.46 51.97 53.17 49.69 53.17 46.88C53.17 46.19 53.31 45.54 53.55 44.94L24.3 44.94C23.42 44.94 22.71 44.24 22.71 43.36C22.71 42.49 23.42 41.78 24.3 41.78L58.15 41.78C58.17 41.78 58.19 41.79 58.22 41.79C58.24 41.79 58.26 41.78 58.28 41.78C61.1 41.78 63.39 44.06 63.39 46.88C63.39 49.69 61.1 51.97 58.28 51.97ZM68.86 43.22C66.04 43.22 63.75 40.94 63.75 38.13C63.75 37.44 63.89 36.79 64.13 36.2L10.54 36.2C9.67 36.2 8.96 35.49 8.96 34.61C8.96 33.74 9.67 33.03 10.54 33.03L68.73 33.03C68.75 33.03 68.77 33.04 68.79 33.04C68.82 33.04 68.84 33.03 68.86 33.03C71.68 33.03 73.97 35.31 73.97 38.13C73.97 40.94 71.68 43.22 68.86 43.22ZM58.28 17.95C55.46 17.95 53.17 20.24 53.17 23.05C53.17 23.73 53.31 24.39 53.55 24.98L34.88 24.98C34 24.98 33.29 25.69 33.29 26.56C33.29 27.44 34 28.15 34.88 28.15L58.15 28.15C58.17 28.15 58.19 28.14 58.22 28.14C58.24 28.14 58.26 28.15 58.28 28.15C61.1 28.15 63.39 25.86 63.39 23.05C63.39 20.24 61.1 17.95 58.28 17.95Z" />
		<path id="snow-02" class="shp1" d="M9 51C10.1 51 11 51.9 11 53C11 54.1 10.1 55 9 55C7.9 55 7 54.1 7 53C7 51.9 7.9 51 9 51M19 51C20.1 51 21 51.9 21 53C21 54.1 20.1 55 19 55C17.9 55 17 54.1 17 53C17 51.9 17.9 51 19 51M29 51C30.1 51 31 51.9 31 53C31 54.1 30.1 55 29 55C27.9 55 27 54.1 27 53C27 51.9 27.9 51 29 51M39 51C40.1 51 41 51.9 41 53C41 54.1 40.1 55 39 55C37.9 55 37 54.1 37 53C37 51.9 37.9 51 39 51M16 60C16 61.1 15.1 62 14 62C12.9 62 12 61.1 12 60C12 58.9 12.9 58 14 58C15.1 58 16 58.9 16 60ZM26 60C26 61.1 25.1 62 24 62C22.9 62 22 61.1 22 60C22 58.9 22.9 58 24 58C25.1 58 26 58.9 26 60ZM36 60C36 61.1 35.1 62 34 62C32.9 62 32 61.1 32 60C32 58.9 32.9 58 34 58C35.1 58 36 58.9 36 60ZM14 48C12.9 48 12 47.1 12 46C12 44.9 12.9 44 14 44C15.1 44 16 44.9 16 46M16 46C16 47.1 15.1 48 14 48" />
	</g>
</svg>