<svg version="1.2" baseProfile="tiny-ps" xmlns="http://www.w3.org/2000/svg" viewBox="0 0 80 80" width="80" height="80">
	<title>Breezy</title>
	<defs>
		<linearGradient id="grd1" gradientUnits="userSpaceOnUse"  x1="44.466" y1="45.991" x2="67.457" y2="23">
			<stop offset="0" stop-color="#d6f2fd"  />
			<stop offset="1" stop-color="#e5f5fd"  />
		</linearGradient>
		<linearGradient id="grd2" gradientUnits="userSpaceOnUse"  x1="29.072" y1="69.732" x2="44.845" y2="53.96">
			<stop offset="0" stop-color="#00ccff"  />
			<stop offset="1" stop-color="#5ddefe"  />
		</linearGradient>
	</defs>
	<style>
		tspan { white-space:pre }
		.shp0 { fill: #ffffff } 
		.shp1 { fill: url(#grd1) } 
		.shp2 { fill: url(#grd2) } 
	</style>
	<g id="Drizzle">
		<path id="cloud-large" class="shp0" d="M53.24 45.96C59.17 45.96 63.97 41.24 63.97 35.41C63.97 29.59 59.17 24.87 53.24 24.87C53.21 24.87 53.17 24.88 53.13 24.88C52.18 16.47 44.93 9.93 36.12 9.93C29.17 9.93 23.19 14.01 20.51 19.87C20.42 19.87 20.34 19.86 20.25 19.86C12.92 19.86 6.98 25.7 6.98 32.91C6.98 40.11 12.92 45.96 20.25 45.96" />
		<path id="cloud-small-dark" class="shp1" d="M67.18 45.99C70.92 45.99 73.95 42.98 73.95 39.26C73.95 35.55 70.92 32.53 67.18 32.53C67.16 32.53 67.13 32.54 67.11 32.54C66.51 27.17 61.93 23 56.37 23C51.98 23 48.2 25.6 46.51 29.34C46.46 29.34 46.41 29.34 46.35 29.34C41.72 29.34 37.97 33.06 37.97 37.66C37.97 42.26 41.72 45.99 46.35 45.99" />
		<path id="rain-05" class="shp2" d="M16.26 62.73C15.92 62.73 15.58 62.65 15.26 62.47C14.29 61.93 13.97 60.74 14.52 59.81L17.43 54.94C17.98 54 19.21 53.68 20.18 54.22C21.14 54.76 21.47 55.95 20.91 56.89L18.01 61.76C17.64 62.38 16.96 62.73 16.26 62.73ZM32.48 62.73C32.14 62.73 31.8 62.65 31.48 62.47C30.51 61.93 30.19 60.74 30.74 59.81L33.65 54.94C34.2 54 35.43 53.68 36.4 54.22C37.36 54.76 37.69 55.95 37.14 56.89L34.23 61.76C33.86 62.38 33.18 62.73 32.48 62.73ZM48.7 62.73C48.36 62.73 48.02 62.65 47.7 62.47C46.74 61.93 46.41 60.74 46.96 59.81L49.87 54.94C50.42 54 51.65 53.68 52.62 54.22C53.58 54.76 53.91 55.95 53.36 56.89L50.45 61.76C50.08 62.38 49.4 62.73 48.7 62.73ZM21.3 69.73C20.96 69.73 20.61 69.65 20.29 69.47C19.33 68.93 19 67.74 19.55 66.81L22.46 61.93C23.02 61 24.25 60.68 25.21 61.22C26.17 61.76 26.5 62.95 25.95 63.88L23.04 68.76C22.67 69.38 21.99 69.73 21.3 69.73ZM38.02 69.73C37.68 69.73 37.33 69.65 37.02 69.47C36.05 68.93 35.72 67.74 36.28 66.81L39.18 61.93C39.74 61 40.97 60.68 41.94 61.22C42.9 61.76 43.23 62.95 42.67 63.88L39.77 68.76C39.39 69.38 38.72 69.73 38.02 69.73ZM54.74 69.73C54.4 69.73 54.06 69.65 53.74 69.47C52.78 68.93 52.45 67.74 53 66.81L55.91 61.93C56.46 61 57.69 60.68 58.66 61.22C59.62 61.76 59.95 62.95 59.4 63.88L56.49 68.76C56.12 69.38 55.44 69.73 54.74 69.73Z" />
	</g>
</svg>