<svg version="1.2" baseProfile="tiny-ps" xmlns="http://www.w3.org/2000/svg" viewBox="0 0 80 80" width="80" height="80">
	<title>Breezy</title>
	<defs>
		<linearGradient id="grd1" gradientUnits="userSpaceOnUse"  x1="44.934" y1="34.949" x2="73.868" y2="6.016">
			<stop offset="0" stop-color="#00ccff"  />
			<stop offset="1" stop-color="#5ddefe"  />
		</linearGradient>
		<linearGradient id="grd2" gradientUnits="userSpaceOnUse"  x1="16.462" y1="49.956" x2="52.485" y2="13.933">
			<stop offset="0" stop-color="#d6f2fd"  />
			<stop offset="1" stop-color="#e5f5fd"  />
		</linearGradient>
		<linearGradient id="grd3" gradientUnits="userSpaceOnUse"  x1="31.072" y1="73.732" x2="46.845" y2="57.96">
			<stop offset="0" stop-color="#00ccff"  />
			<stop offset="1" stop-color="#5ddefe"  />
		</linearGradient>
	</defs>
	<style>
		tspan { white-space:pre }
		.shp0 { fill: url(#grd1) } 
		.shp1 { fill: url(#grd2) } 
		.shp2 { fill: #ffffff } 
		.shp3 { fill: url(#grd3) } 
	</style>
	<g id="Drizzle Night">
		<path id="moon-small" class="shp0" d="M59.68 34.95C51.55 34.95 44.93 28.34 44.93 20.21C44.93 13.67 49.32 7.85 55.61 6.04C55.88 5.97 56.17 6.04 56.37 6.24C56.56 6.44 56.64 6.73 56.56 7C56.22 8.21 56.04 9.43 56.04 10.64C56.04 17.92 61.96 23.84 69.24 23.84C70.45 23.84 71.68 23.67 72.88 23.32C73.15 23.25 73.44 23.32 73.64 23.52C73.84 23.72 73.92 24.01 73.84 24.28C72.03 30.56 66.21 34.95 59.68 34.95Z" />
		<path id="cloud-large-night" class="shp1" d="M52.24 49.96C58.17 49.96 62.97 45.24 62.97 39.41C62.97 33.59 58.17 28.87 52.24 28.87C52.21 28.87 52.17 28.88 52.13 28.88C51.18 20.47 43.93 13.93 35.12 13.93C28.17 13.93 22.19 18.01 19.51 23.87C19.42 23.87 19.34 23.86 19.25 23.86C11.92 23.86 5.98 29.7 5.98 36.91C5.98 44.11 11.92 49.96 19.25 49.96" />
		<path id="cloud-small" class="shp2" d="M66.18 49.99C69.92 49.99 72.95 46.98 72.95 43.26C72.95 39.55 69.92 36.53 66.18 36.53C66.16 36.53 66.13 36.54 66.11 36.54C65.51 31.17 60.93 27 55.37 27C50.98 27 47.2 29.6 45.51 33.34C45.46 33.34 45.41 33.34 45.35 33.34C40.72 33.34 36.97 37.06 36.97 41.66C36.97 46.26 40.72 49.99 45.35 49.99" />
		<path id="rain-05" class="shp3" d="M18.26 66.73C17.92 66.73 17.58 66.65 17.26 66.47C16.29 65.93 15.97 64.74 16.52 63.81L19.43 58.94C19.98 58 21.21 57.68 22.18 58.22C23.14 58.76 23.47 59.95 22.92 60.89L20.01 65.76C19.64 66.38 18.96 66.73 18.26 66.73ZM34.48 66.73C34.14 66.73 33.8 66.65 33.48 66.47C32.51 65.93 32.19 64.74 32.74 63.81L35.65 58.94C36.2 58 37.43 57.68 38.4 58.22C39.36 58.76 39.69 59.95 39.14 60.89L36.23 65.76C35.86 66.38 35.18 66.73 34.48 66.73ZM50.7 66.73C50.36 66.73 50.02 66.65 49.7 66.47C48.74 65.93 48.41 64.74 48.96 63.81L51.87 58.94C52.42 58 53.65 57.68 54.62 58.22C55.58 58.76 55.91 59.95 55.36 60.89L52.45 65.76C52.08 66.38 51.4 66.73 50.7 66.73ZM23.3 73.73C22.96 73.73 22.61 73.65 22.29 73.47C21.33 72.93 21 71.74 21.55 70.81L24.46 65.93C25.02 65 26.25 64.68 27.21 65.22C28.17 65.76 28.5 66.95 27.95 67.88L25.04 72.76C24.67 73.38 23.99 73.73 23.3 73.73ZM40.02 73.73C39.68 73.73 39.33 73.65 39.02 73.47C38.05 72.93 37.72 71.74 38.28 70.81L41.18 65.93C41.74 65 42.97 64.68 43.94 65.22C44.9 65.76 45.23 66.95 44.67 67.88L41.77 72.76C41.39 73.38 40.72 73.73 40.02 73.73ZM56.74 73.73C56.4 73.73 56.06 73.65 55.74 73.47C54.78 72.93 54.45 71.74 55 70.81L57.91 65.93C58.46 65 59.69 64.68 60.66 65.22C61.62 65.76 61.95 66.95 61.4 67.88L58.49 72.76C58.12 73.38 57.44 73.73 56.74 73.73Z" />
	</g>
</svg>