<svg version="1.2" baseProfile="tiny-ps" xmlns="http://www.w3.org/2000/svg" viewBox="0 0 80 80" width="80" height="80">
	<title>Breezy</title>
	<defs>
		<linearGradient id="grd1" gradientUnits="userSpaceOnUse"  x1="7.999" y1="60.996" x2="48.995" y2="20">
			<stop offset="0" stop-color="#ffbc27"  />
			<stop offset="1" stop-color="#fde252"  />
		</linearGradient>
	</defs>
	<style>
		tspan { white-space:pre }
		.shp0 { fill: url(#grd1) } 
		.shp1 { fill: #ffffff } 
	</style>
	<g id="Dust">
		<path id="sun" class="shp0" d="M48.99 40.5C48.99 51.82 39.82 61 28.5 61C17.18 61 8 51.82 8 40.5C8 29.18 17.18 20 28.5 20C39.82 20 48.99 29.18 48.99 40.5Z" />
		<path id="dust" class="shp1" d="M41 40C41 41.1 40.1 42 39 42C37.9 42 37 41.1 37 40C37 38.9 37.9 38 39 38C40.1 38 41 38.9 41 40ZM51 40C51 41.1 50.1 42 49 42C47.9 42 47 41.1 47 40C47 38.9 47.9 38 49 38C50.1 38 51 38.9 51 40ZM61 40C61 41.1 60.1 42 59 42C57.9 42 57 41.1 57 40C57 38.9 57.9 38 59 38C60.1 38 61 38.9 61 40ZM71 40C71 41.1 70.1 42 69 42C67.9 42 67 41.1 67 40C67 38.9 67.9 38 69 38C70.1 38 71 38.9 71 40ZM51 54C51 55.1 50.1 56 49 56C47.9 56 47 55.1 47 54C47 52.9 47.9 52 49 52C50.1 52 51 52.9 51 54ZM61 54C61 55.1 60.1 56 59 56C57.9 56 57 55.1 57 54C57 52.9 57.9 52 59 52C60.1 52 61 52.9 61 54ZM36 47C36 48.1 35.1 49 34 49C32.9 49 32 48.1 32 47C32 45.9 32.9 45 34 45C35.1 45 36 45.9 36 47ZM46 47C46 48.1 45.1 49 44 49C42.9 49 42 48.1 42 47C42 45.9 42.9 45 44 45C45.1 45 46 45.9 46 47ZM56 47C56 48.1 55.1 49 54 49C52.9 49 52 48.1 52 47C52 45.9 52.9 45 54 45C55.1 45 56 45.9 56 47ZM66 47C66 48.1 65.1 49 64 49C62.9 49 62 48.1 62 47C62 45.9 62.9 45 64 45C65.1 45 66 45.9 66 47Z" />
	</g>
</svg>