<svg version="1.2" baseProfile="tiny-ps" xmlns="http://www.w3.org/2000/svg" viewBox="0 0 80 80" width="80" height="80">
	<title>Breezy</title>
	<defs>
		<linearGradient id="grd1" gradientUnits="userSpaceOnUse"  x1="45.934" y1="37.949" x2="74.868" y2="9.016">
			<stop offset="0" stop-color="#00ccff"  />
			<stop offset="1" stop-color="#5ddefe"  />
		</linearGradient>
		<linearGradient id="grd2" gradientUnits="userSpaceOnUse"  x1="16.462" y1="52.956" x2="52.485" y2="16.933">
			<stop offset="0" stop-color="#d6f2fd"  />
			<stop offset="1" stop-color="#e5f5fd"  />
		</linearGradient>
		<linearGradient id="grd3" gradientUnits="userSpaceOnUse"  x1="32.9" y1="72" x2="43.9" y2="61">
			<stop offset="0" stop-color="#00ccff"  />
			<stop offset="1" stop-color="#5ddefe"  />
		</linearGradient>
	</defs>
	<style>
		tspan { white-space:pre }
		.shp0 { fill: url(#grd1) } 
		.shp1 { fill: url(#grd2) } 
		.shp2 { fill: #ffffff } 
		.shp3 { fill: url(#grd3) } 
	</style>
	<g id="Fog Night">
		<path id="moon-small" class="shp0" d="M60.68 37.95C52.55 37.95 45.93 31.34 45.93 23.21C45.93 16.67 50.32 10.85 56.61 9.04C56.88 8.97 57.17 9.04 57.37 9.24C57.56 9.44 57.64 9.73 57.56 10C57.22 11.21 57.04 12.43 57.04 13.64C57.04 20.92 62.96 26.84 70.24 26.84C71.45 26.84 72.68 26.67 73.88 26.32C74.15 26.25 74.44 26.32 74.64 26.52C74.84 26.72 74.92 27.01 74.84 27.28C73.03 33.56 67.21 37.95 60.68 37.95Z" />
		<path id="cloud-large-night" class="shp1" d="M52.24 52.96C58.17 52.96 62.97 48.24 62.97 42.41C62.97 36.59 58.17 31.87 52.24 31.87C52.21 31.87 52.17 31.88 52.13 31.88C51.18 23.47 43.93 16.93 35.12 16.93C28.17 16.93 22.19 21.01 19.51 26.87C19.42 26.87 19.34 26.86 19.25 26.86C11.92 26.86 5.98 32.7 5.98 39.91C5.98 47.11 11.92 52.96 19.25 52.96" />
		<path id="cloud-small" class="shp2" d="M66.18 52.99C69.92 52.99 72.95 49.98 72.95 46.26C72.95 42.55 69.92 39.53 66.18 39.53C66.16 39.53 66.13 39.54 66.11 39.54C65.51 34.17 60.93 30 55.37 30C50.98 30 47.2 32.6 45.51 36.34C45.46 36.34 45.41 36.34 45.35 36.34C40.72 36.34 36.97 40.06 36.97 44.66C36.97 49.26 40.72 52.99 45.35 52.99" />
		<path id="fog" class="shp3" d="M27.53 64L17.43 64C16.59 64 15.91 63.33 15.91 62.5C15.91 61.67 16.59 61 17.43 61L27.53 61C28.37 61 29.05 61.67 29.05 62.5C29.05 63.33 28.37 64 27.53 64ZM49.27 64L34.1 64C33.27 64 32.59 63.33 32.59 62.5C32.59 61.67 33.27 61 34.1 61L49.27 61C50.1 61 50.78 61.67 50.78 62.5C50.78 63.33 50.1 64 49.27 64ZM37.64 72L17.43 72C16.59 72 15.91 71.33 15.91 70.5C15.91 69.67 16.59 69 17.43 69L37.64 69C38.48 69 39.16 69.67 39.16 70.5C39.16 71.33 38.48 72 37.64 72ZM59.37 72L44.21 72C43.37 72 42.7 71.33 42.7 70.5C42.7 69.67 43.37 69 44.21 69L59.37 69C60.21 69 60.89 69.67 60.89 70.5C60.89 71.33 60.21 72 59.37 72Z" />
	</g>
</svg>