<svg version="1.2" baseProfile="tiny-ps" xmlns="http://www.w3.org/2000/svg" viewBox="0 0 80 80" width="80" height="80">
	<title>Breezy</title>
	<defs>
		<linearGradient id="grd1" gradientUnits="userSpaceOnUse"  x1="44.466" y1="48.991" x2="67.457" y2="26">
			<stop offset="0" stop-color="#d6f2fd"  />
			<stop offset="1" stop-color="#e5f5fd"  />
		</linearGradient>
		<linearGradient id="grd2" gradientUnits="userSpaceOnUse"  x1="32.9" y1="67" x2="43.9" y2="56">
			<stop offset="0" stop-color="#00ccff"  />
			<stop offset="1" stop-color="#5ddefe"  />
		</linearGradient>
	</defs>
	<style>
		tspan { white-space:pre }
		.shp0 { fill: #ffffff } 
		.shp1 { fill: url(#grd1) } 
		.shp2 { fill: url(#grd2) } 
	</style>
	<g id="Fog">
		<path id="cloud-large" class="shp0" d="M53.24 48.96C59.17 48.96 63.97 44.24 63.97 38.41C63.97 32.59 59.17 27.87 53.24 27.87C53.21 27.87 53.17 27.88 53.13 27.88C52.18 19.47 44.93 12.93 36.12 12.93C29.17 12.93 23.19 17.01 20.51 22.87C20.42 22.87 20.34 22.86 20.25 22.86C12.92 22.86 6.98 28.7 6.98 35.91C6.98 43.11 12.92 48.96 20.25 48.96" />
		<path id="cloud-small-dark" class="shp1" d="M67.18 48.99C70.92 48.99 73.95 45.98 73.95 42.26C73.95 38.55 70.92 35.53 67.18 35.53C67.16 35.53 67.13 35.54 67.11 35.54C66.51 30.17 61.93 26 56.37 26C51.98 26 48.2 28.6 46.51 32.34C46.46 32.34 46.41 32.34 46.35 32.34C41.72 32.34 37.97 36.06 37.97 40.66C37.97 45.26 41.72 48.99 46.35 48.99" />
		<path id="fog" class="shp2" d="M27.53 59L17.43 59C16.59 59 15.91 58.33 15.91 57.5C15.91 56.67 16.59 56 17.43 56L27.53 56C28.37 56 29.05 56.67 29.05 57.5C29.05 58.33 28.37 59 27.53 59ZM49.27 59L34.1 59C33.27 59 32.59 58.33 32.59 57.5C32.59 56.67 33.27 56 34.1 56L49.27 56C50.1 56 50.78 56.67 50.78 57.5C50.78 58.33 50.1 59 49.27 59ZM37.64 67L17.43 67C16.59 67 15.91 66.33 15.91 65.5C15.91 64.67 16.59 64 17.43 64L37.64 64C38.48 64 39.16 64.67 39.16 65.5C39.16 66.33 38.48 67 37.64 67ZM59.37 67L44.21 67C43.37 67 42.7 66.33 42.7 65.5C42.7 64.67 43.37 64 44.21 64L59.37 64C60.21 64 60.89 64.67 60.89 65.5C60.89 66.33 60.21 67 59.37 67Z" />
	</g>
</svg>