<svg version="1.2" baseProfile="tiny-ps" xmlns="http://www.w3.org/2000/svg" viewBox="0 0 80 80" width="80" height="80">
	<title>Breezy</title>
	<defs>
		<linearGradient id="grd1" gradientUnits="userSpaceOnUse"  x1="314.934" y1="548.949" x2="343.868" y2="520.016">
			<stop offset="0" stop-color="#00ccff"  />
			<stop offset="1" stop-color="#5ddefe"  />
		</linearGradient>
		<linearGradient id="grd2" gradientUnits="userSpaceOnUse"  x1="286.462" y1="565.956" x2="322.485" y2="529.933">
			<stop offset="0" stop-color="#d6f2fd"  />
			<stop offset="1" stop-color="#e5f5fd"  />
		</linearGradient>
		<linearGradient id="grd3" gradientUnits="userSpaceOnUse"  x1="291.487" y1="594.943" x2="311.513" y2="574.918">
			<stop offset="0" stop-color="#d6f2fd"  />
			<stop offset="1" stop-color="#e5f5fd"  />
		</linearGradient>
		<linearGradient id="grd4" gradientUnits="userSpaceOnUse"  x1="1375.466" y1="716.991" x2="1398.457" y2="694">
			<stop offset="0" stop-color="#d6f2fd"  />
			<stop offset="1" stop-color="#e5f5fd"  />
		</linearGradient>
		<linearGradient id="grd5" gradientUnits="userSpaceOnUse"  x1="1353.487" y1="745.943" x2="1373.513" y2="725.918">
			<stop offset="0" stop-color="#d6f2fd"  />
			<stop offset="1" stop-color="#e5f5fd"  />
		</linearGradient>
		<linearGradient id="grd6" gradientUnits="userSpaceOnUse"  x1="1074.842" y1="713.904" x2="1092.814" y2="695.932">
			<stop offset="0" stop-color="#d6f2fd"  />
			<stop offset="1" stop-color="#e5f5fd"  />
		</linearGradient>
		<linearGradient id="grd7" gradientUnits="userSpaceOnUse"  x1="768.466" y1="253.991" x2="791.457" y2="231">
			<stop offset="0" stop-color="#d6f2fd"  />
			<stop offset="1" stop-color="#e5f5fd"  />
		</linearGradient>
		<linearGradient id="grd8" gradientUnits="userSpaceOnUse"  x1="735.161" y1="282.726" x2="756.562" y2="261.325">
			<stop offset="0" stop-color="#00ccff"  />
			<stop offset="1" stop-color="#5ddefe"  />
		</linearGradient>
		<linearGradient id="grd9" gradientUnits="userSpaceOnUse"  x1="757.017" y1="281.84" x2="777.983" y2="260.875">
			<stop offset="0" stop-color="#d6f2fd"  />
			<stop offset="1" stop-color="#e5f5fd"  />
		</linearGradient>
		<linearGradient id="grd10" gradientUnits="userSpaceOnUse"  x1="1527.934" y1="400.949" x2="1556.868" y2="372.016">
			<stop offset="0" stop-color="#00ccff"  />
			<stop offset="1" stop-color="#5ddefe"  />
		</linearGradient>
		<linearGradient id="grd11" gradientUnits="userSpaceOnUse"  x1="1500.462" y1="415.956" x2="1536.485" y2="379.933">
			<stop offset="0" stop-color="#d6f2fd"  />
			<stop offset="1" stop-color="#e5f5fd"  />
		</linearGradient>
		<linearGradient id="grd12" gradientUnits="userSpaceOnUse"  x1="1493.161" y1="444.726" x2="1514.562" y2="423.325">
			<stop offset="0" stop-color="#00ccff"  />
			<stop offset="1" stop-color="#5ddefe"  />
		</linearGradient>
		<linearGradient id="grd13" gradientUnits="userSpaceOnUse"  x1="1515.017" y1="443.84" x2="1535.983" y2="422.875">
			<stop offset="0" stop-color="#d6f2fd"  />
			<stop offset="1" stop-color="#e5f5fd"  />
		</linearGradient>
		<linearGradient id="grd14" gradientUnits="userSpaceOnUse"  x1="1204.452" y1="273.264" x2="1226.475" y2="251.241">
			<stop offset="0" stop-color="#ffbc27"  />
			<stop offset="1" stop-color="#fde252"  />
		</linearGradient>
		<linearGradient id="grd15" gradientUnits="userSpaceOnUse"  x1="1224.934" y1="236.949" x2="1253.868" y2="208.016">
			<stop offset="0" stop-color="#00ccff"  />
			<stop offset="1" stop-color="#5ddefe"  />
		</linearGradient>
		<linearGradient id="grd16" gradientUnits="userSpaceOnUse"  x1="1196.462" y1="252.956" x2="1232.485" y2="216.933">
			<stop offset="0" stop-color="#d6f2fd"  />
			<stop offset="1" stop-color="#e5f5fd"  />
		</linearGradient>
		<linearGradient id="grd17" gradientUnits="userSpaceOnUse"  x1="1355.452" y1="587.264" x2="1377.475" y2="565.241">
			<stop offset="0" stop-color="#ffbc27"  />
			<stop offset="1" stop-color="#fde252"  />
		</linearGradient>
		<linearGradient id="grd18" gradientUnits="userSpaceOnUse"  x1="1375.466" y1="565.991" x2="1398.457" y2="543">
			<stop offset="0" stop-color="#d6f2fd"  />
			<stop offset="1" stop-color="#e5f5fd"  />
		</linearGradient>
		<linearGradient id="grd19" gradientUnits="userSpaceOnUse"  x1="1203.452" y1="737.264" x2="1225.475" y2="715.241">
			<stop offset="0" stop-color="#ffbc27"  />
			<stop offset="1" stop-color="#fde252"  />
		</linearGradient>
		<linearGradient id="grd20" gradientUnits="userSpaceOnUse"  x1="1223.934" y1="699.949" x2="1252.868" y2="671.015">
			<stop offset="0" stop-color="#00ccff"  />
			<stop offset="1" stop-color="#5ddefe"  />
		</linearGradient>
		<linearGradient id="grd21" gradientUnits="userSpaceOnUse"  x1="1245.101" y1="679.103" x2="1252.507" y2="671.697">
			<stop offset="0" stop-color="#ffbc27"  />
			<stop offset="1" stop-color="#fde252"  />
		</linearGradient>
		<linearGradient id="grd22" gradientUnits="userSpaceOnUse"  x1="1190.65" y1="682.566" x2="1196.3" y2="676.916">
			<stop offset="0" stop-color="#ffbc27"  />
			<stop offset="1" stop-color="#fde252"  />
		</linearGradient>
		<linearGradient id="grd23" gradientUnits="userSpaceOnUse"  x1="1196.462" y1="716.956" x2="1232.485" y2="680.933">
			<stop offset="0" stop-color="#d6f2fd"  />
			<stop offset="1" stop-color="#e5f5fd"  />
		</linearGradient>
		<linearGradient id="grd24" gradientUnits="userSpaceOnUse"  x1="312.996" y1="400.995" x2="338.991" y2="375.001">
			<stop offset="0" stop-color="#ffbc27"  />
			<stop offset="1" stop-color="#fde252"  />
		</linearGradient>
		<linearGradient id="grd25" gradientUnits="userSpaceOnUse"  x1="294.452" y1="436.264" x2="316.475" y2="414.241">
			<stop offset="0" stop-color="#ffbc27"  />
			<stop offset="1" stop-color="#fde252"  />
		</linearGradient>
		<linearGradient id="grd26" gradientUnits="userSpaceOnUse"  x1="314.466" y1="415.991" x2="337.457" y2="393">
			<stop offset="0" stop-color="#d6f2fd"  />
			<stop offset="1" stop-color="#e5f5fd"  />
		</linearGradient>
		<linearGradient id="grd27" gradientUnits="userSpaceOnUse"  x1="1526.934" y1="700.949" x2="1555.868" y2="672.016">
			<stop offset="0" stop-color="#00ccff"  />
			<stop offset="1" stop-color="#5ddefe"  />
		</linearGradient>
		<linearGradient id="grd28" gradientUnits="userSpaceOnUse"  x1="1500.462" y1="715.956" x2="1536.485" y2="679.933">
			<stop offset="0" stop-color="#d6f2fd"  />
			<stop offset="1" stop-color="#e5f5fd"  />
		</linearGradient>
		<linearGradient id="grd29" gradientUnits="userSpaceOnUse"  x1="1512.547" y1="732.72" x2="1521.32" y2="723.947">
			<stop offset="0" stop-color="#00ccff"  />
			<stop offset="1" stop-color="#5ddefe"  />
		</linearGradient>
		<linearGradient id="grd30" gradientUnits="userSpaceOnUse"  x1="917.996" y1="699.995" x2="943.991" y2="674.001">
			<stop offset="0" stop-color="#ffbc27"  />
			<stop offset="1" stop-color="#fde252"  />
		</linearGradient>
		<linearGradient id="grd31" gradientUnits="userSpaceOnUse"  x1="920.466" y1="715.991" x2="943.457" y2="693">
			<stop offset="0" stop-color="#d6f2fd"  />
			<stop offset="1" stop-color="#e5f5fd"  />
		</linearGradient>
		<linearGradient id="grd32" gradientUnits="userSpaceOnUse"  x1="906.547" y1="732.72" x2="915.32" y2="723.947">
			<stop offset="0" stop-color="#00ccff"  />
			<stop offset="1" stop-color="#5ddefe"  />
		</linearGradient>
		<linearGradient id="grd33" gradientUnits="userSpaceOnUse"  x1="1072.934" y1="400.949" x2="1101.868" y2="372.016">
			<stop offset="0" stop-color="#00ccff"  />
			<stop offset="1" stop-color="#5ddefe"  />
		</linearGradient>
		<linearGradient id="grd34" gradientUnits="userSpaceOnUse"  x1="1045.462" y1="415.956" x2="1081.485" y2="379.933">
			<stop offset="0" stop-color="#d6f2fd"  />
			<stop offset="1" stop-color="#e5f5fd"  />
		</linearGradient>
		<linearGradient id="grd35" gradientUnits="userSpaceOnUse"  x1="1046.594" y1="438.669" x2="1062.25" y2="423.013">
			<stop offset="0" stop-color="#00ccff"  />
			<stop offset="1" stop-color="#5ddefe"  />
		</linearGradient>
		<linearGradient id="grd36" gradientUnits="userSpaceOnUse"  x1="617.466" y1="415.991" x2="640.457" y2="393">
			<stop offset="0" stop-color="#d6f2fd"  />
			<stop offset="1" stop-color="#e5f5fd"  />
		</linearGradient>
		<linearGradient id="grd37" gradientUnits="userSpaceOnUse"  x1="592.594" y1="438.669" x2="608.25" y2="423.013">
			<stop offset="0" stop-color="#00ccff"  />
			<stop offset="1" stop-color="#5ddefe"  />
		</linearGradient>
		<linearGradient id="grd38" gradientUnits="userSpaceOnUse"  x1="1072.934" y1="237.949" x2="1101.868" y2="209.016">
			<stop offset="0" stop-color="#00ccff"  />
			<stop offset="1" stop-color="#5ddefe"  />
		</linearGradient>
		<linearGradient id="grd39" gradientUnits="userSpaceOnUse"  x1="1093.101" y1="217.103" x2="1100.507" y2="209.697">
			<stop offset="0" stop-color="#ffbc27"  />
			<stop offset="1" stop-color="#fde252"  />
		</linearGradient>
		<linearGradient id="grd40" gradientUnits="userSpaceOnUse"  x1="1038.65" y1="219.566" x2="1044.3" y2="213.916">
			<stop offset="0" stop-color="#ffbc27"  />
			<stop offset="1" stop-color="#fde252"  />
		</linearGradient>
		<linearGradient id="grd41" gradientUnits="userSpaceOnUse"  x1="1045.462" y1="252.956" x2="1081.485" y2="216.933">
			<stop offset="0" stop-color="#d6f2fd"  />
			<stop offset="1" stop-color="#e5f5fd"  />
		</linearGradient>
		<linearGradient id="grd42" gradientUnits="userSpaceOnUse"  x1="766.996" y1="554.995" x2="792.991" y2="529.001">
			<stop offset="0" stop-color="#ffbc27"  />
			<stop offset="1" stop-color="#fde252"  />
		</linearGradient>
		<linearGradient id="grd43" gradientUnits="userSpaceOnUse"  x1="768.466" y1="570.991" x2="791.457" y2="548">
			<stop offset="0" stop-color="#d6f2fd"  />
			<stop offset="1" stop-color="#e5f5fd"  />
		</linearGradient>
		<linearGradient id="grd44" gradientUnits="userSpaceOnUse"  x1="1527.934" y1="550.949" x2="1556.868" y2="522.016">
			<stop offset="0" stop-color="#00ccff"  />
			<stop offset="1" stop-color="#5ddefe"  />
		</linearGradient>
		<linearGradient id="grd45" gradientUnits="userSpaceOnUse"  x1="1500.462" y1="566.956" x2="1536.485" y2="530.933">
			<stop offset="0" stop-color="#d6f2fd"  />
			<stop offset="1" stop-color="#e5f5fd"  />
		</linearGradient>
		<linearGradient id="grd46" gradientUnits="userSpaceOnUse"  x1="920.466" y1="415.991" x2="943.457" y2="393">
			<stop offset="0" stop-color="#d6f2fd"  />
			<stop offset="1" stop-color="#e5f5fd"  />
		</linearGradient>
		<linearGradient id="grd47" gradientUnits="userSpaceOnUse"  x1="895.999" y1="571.996" x2="936.995" y2="531">
			<stop offset="0" stop-color="#ffbc27"  />
			<stop offset="1" stop-color="#fde252"  />
		</linearGradient>
		<linearGradient id="grd48" gradientUnits="userSpaceOnUse"  x1="38.452" y1="71.264" x2="60.475" y2="49.241">
			<stop offset="0" stop-color="#ffbc27"  />
			<stop offset="1" stop-color="#fde252"  />
		</linearGradient>
		<linearGradient id="grd49" gradientUnits="userSpaceOnUse"  x1="44.934" y1="34.949" x2="73.868" y2="6.016">
			<stop offset="0" stop-color="#00ccff"  />
			<stop offset="1" stop-color="#5ddefe"  />
		</linearGradient>
		<linearGradient id="grd50" gradientUnits="userSpaceOnUse"  x1="17.462" y1="50.956" x2="53.485" y2="14.933">
			<stop offset="0" stop-color="#d6f2fd"  />
			<stop offset="1" stop-color="#e5f5fd"  />
		</linearGradient>
		<linearGradient id="grd51" gradientUnits="userSpaceOnUse"  x1="13.027" y1="73.666" x2="28.684" y2="58.009">
			<stop offset="0" stop-color="#00ccff"  />
			<stop offset="1" stop-color="#5ddefe"  />
		</linearGradient>
	</defs>
	<style>
		tspan { white-space:pre }
		.shp0 { fill: #dff5fe } 
		.shp1 { fill: url(#grd1) } 
		.shp2 { fill: url(#grd2) } 
		.shp3 { fill: #ffffff } 
		.shp4 { fill: url(#grd3) } 
		.shp5 { fill: url(#grd4) } 
		.shp6 { fill: url(#grd5) } 
		.shp7 { fill: url(#grd6) } 
		.shp8 { fill: url(#grd7) } 
		.shp9 { fill: url(#grd8) } 
		.shp10 { fill: url(#grd9) } 
		.shp11 { fill: url(#grd10) } 
		.shp12 { fill: url(#grd11) } 
		.shp13 { fill: url(#grd12) } 
		.shp14 { fill: url(#grd13) } 
		.shp15 { fill: url(#grd14) } 
		.shp16 { fill: url(#grd15) } 
		.shp17 { fill: url(#grd16) } 
		.shp18 { fill: url(#grd17) } 
		.shp19 { fill: url(#grd18) } 
		.shp20 { fill: url(#grd19) } 
		.shp21 { fill: url(#grd20) } 
		.shp22 { fill: url(#grd21) } 
		.shp23 { fill: url(#grd22) } 
		.shp24 { fill: url(#grd23) } 
		.shp25 { fill: url(#grd24) } 
		.shp26 { fill: url(#grd25) } 
		.shp27 { fill: url(#grd26) } 
		.shp28 { fill: url(#grd27) } 
		.shp29 { fill: url(#grd28) } 
		.shp30 { fill: url(#grd29) } 
		.shp31 { fill: url(#grd30) } 
		.shp32 { fill: url(#grd31) } 
		.shp33 { fill: url(#grd32) } 
		.shp34 { fill: url(#grd33) } 
		.shp35 { fill: url(#grd34) } 
		.shp36 { fill: url(#grd35) } 
		.shp37 { fill: url(#grd36) } 
		.shp38 { fill: url(#grd37) } 
		.shp39 { fill: url(#grd38) } 
		.shp40 { fill: url(#grd39) } 
		.shp41 { fill: url(#grd40) } 
		.shp42 { fill: url(#grd41) } 
		.shp43 { fill: url(#grd42) } 
		.shp44 { fill: url(#grd43) } 
		.shp45 { fill: url(#grd44) } 
		.shp46 { fill: url(#grd45) } 
		.shp47 { fill: url(#grd46) } 
		.shp48 { fill: url(#grd47) } 
		.shp49 { fill: url(#grd48) } 
		.shp50 { fill: url(#grd49) } 
		.shp51 { fill: url(#grd50) } 
		.shp52 { fill: url(#grd51) } 
	</style>
	<g id="Tornado">
		<path id="tronado" class="shp0" d="M632 537.85L593 537.85C591.9 537.85 591 536.96 591 535.87C591 534.78 591.9 533.89 593 533.89L632 533.89C633.1 533.89 634 534.78 634 535.87C634 536.96 633.1 537.85 632 537.85ZM626.89 539.83M599 528.94M622 547.38L601 547.38C599.9 547.38 599 546.49 599 545.4C599 544.31 599.9 543.42 601 543.42L622 543.42C623.1 543.42 624 544.31 624 545.4C624 546.49 623.1 547.38 622 547.38ZM625 556.91L607 556.91C605.9 556.91 605 556.02 605 554.93C605 553.83 605.9 552.95 607 552.95L625 552.95C626.1 552.95 627 553.83 627 554.93C627 556.02 626.1 556.91 625 556.91ZM619 566.43L607 566.43C605.9 566.43 605 565.55 605 564.45C605 563.36 605.9 562.47 607 562.47L619 562.47C620.1 562.47 621 563.36 621 564.45C621 565.55 620.1 566.43 619 566.43ZM609.5 575.96L608.5 575.96C607.4 575.96 606.5 575.08 606.5 573.98C606.5 572.89 607.4 572 608.5 572L609.5 572C610.6 572 611.5 572.89 611.5 573.98C611.5 575.08 610.6 575.96 609.5 575.96Z" />
	</g>
	<g id="Snow Night">
		<path id="moon-small" class="shp1" d="M329.68 548.95C321.55 548.95 314.93 542.34 314.93 534.21C314.93 527.67 319.32 521.85 325.61 520.04C325.88 519.97 326.17 520.04 326.37 520.24C326.56 520.44 326.64 520.73 326.56 521C326.22 522.21 326.04 523.43 326.04 524.64C326.04 531.92 331.96 537.84 339.24 537.84C340.45 537.84 341.68 537.67 342.88 537.32C343.15 537.25 343.44 537.32 343.64 537.52C343.84 537.72 343.92 538.01 343.84 538.28C342.03 544.56 336.21 548.95 329.68 548.95Z" />
		<path id="cloud-large-night" class="shp2" d="M322.24 565.96C328.17 565.96 332.97 561.24 332.97 555.41C332.97 549.59 328.17 544.87 322.24 544.87C322.21 544.87 322.17 544.88 322.13 544.88C321.18 536.47 313.93 529.93 305.12 529.93C298.17 529.93 292.19 534.01 289.51 539.87C289.42 539.87 289.34 539.86 289.25 539.86C281.92 539.86 275.98 545.7 275.98 552.91C275.98 560.11 281.92 565.96 289.25 565.96" />
		<path id="cloud-small" class="shp3" d="M336.18 565.99C339.92 565.99 342.95 562.98 342.95 559.26C342.95 555.55 339.92 552.53 336.18 552.53C336.16 552.53 336.13 552.54 336.11 552.54C335.51 547.17 330.93 543 325.37 543C320.98 543 317.2 545.6 315.51 549.34C315.46 549.34 315.41 549.34 315.35 549.34C310.72 549.34 306.97 553.06 306.97 557.66C306.97 562.26 310.72 565.99 315.35 565.99" />
		<path id="snow-01" class="shp4" d="M291 576.89C291 577.98 290.1 578.87 289 578.87C287.9 578.87 287 577.98 287 576.89C287 575.8 287.9 574.92 289 574.92C290.1 574.92 291 575.8 291 576.89ZM301 576.89C301 577.98 300.1 578.87 299 578.87C297.9 578.87 297 577.98 297 576.89C297 575.8 297.9 574.92 299 574.92C300.1 574.92 301 575.8 301 576.89ZM311 576.89C311 577.98 310.1 578.87 309 578.87C307.9 578.87 307 577.98 307 576.89C307 575.8 307.9 574.92 309 574.92C310.1 574.92 311 575.8 311 576.89ZM321 576.89C321 577.98 320.1 578.87 319 578.87C317.9 578.87 317 577.98 317 576.89C317 575.8 317.9 574.92 319 574.92C320.1 574.92 321 575.8 321 576.89ZM291 592.97C291 594.06 290.1 594.94 289 594.94C287.9 594.94 287 594.06 287 592.97C287 591.88 287.9 590.99 289 590.99C290.1 590.99 291 591.88 291 592.97ZM301 592.97C301 594.06 300.1 594.94 299 594.94C297.9 594.94 297 594.06 297 592.97C297 591.88 297.9 590.99 299 590.99C300.1 590.99 301 591.88 301 592.97ZM311 592.97C311 594.06 310.1 594.94 309 594.94C307.9 594.94 307 594.06 307 592.97C307 591.88 307.9 590.99 309 590.99C310.1 590.99 311 591.88 311 592.97ZM321 592.97C321 594.06 320.1 594.94 319 594.94C317.9 594.94 317 594.06 317 592.97C317 591.88 317.9 590.99 319 590.99C320.1 590.99 321 591.88 321 592.97ZM286 585.07C286 586.16 285.1 587.04 284 587.04C282.9 587.04 282 586.16 282 585.07C282 583.98 282.9 583.1 284 583.1C285.1 583.1 286 583.98 286 585.07ZM296 585.07C296 586.16 295.1 587.04 294 587.04C292.9 587.04 292 586.16 292 585.07C292 583.98 292.9 583.1 294 583.1C295.1 583.1 296 583.98 296 585.07ZM306 585.07C306 586.16 305.1 587.04 304 587.04C302.9 587.04 302 586.16 302 585.07C302 583.98 302.9 583.1 304 583.1C305.1 583.1 306 583.98 306 585.07ZM316 585.07C316 586.16 315.1 587.04 314 587.04C312.9 587.04 312 586.16 312 585.07C312 583.98 312.9 583.1 314 583.1C315.1 583.1 316 583.98 316 585.07Z" />
	</g>
	<g id="Snow">
		<path id="cloud-large" class="shp3" d="M1384.24 716.96C1390.17 716.96 1394.97 712.24 1394.97 706.41C1394.97 700.59 1390.17 695.87 1384.24 695.87C1384.21 695.87 1384.17 695.88 1384.13 695.88C1383.18 687.47 1375.93 680.93 1367.12 680.93C1360.17 680.93 1354.19 685.01 1351.51 690.87C1351.42 690.87 1351.34 690.86 1351.25 690.86C1343.92 690.86 1337.98 696.7 1337.98 703.91C1337.98 711.11 1343.92 716.96 1351.25 716.96" />
		<path id="cloud-small-dark" class="shp5" d="M1398.18 716.99C1401.92 716.99 1404.95 713.98 1404.95 710.26C1404.95 706.55 1401.92 703.53 1398.18 703.53C1398.16 703.53 1398.13 703.54 1398.11 703.54C1397.51 698.17 1392.93 694 1387.37 694C1382.98 694 1379.2 696.6 1377.51 700.34C1377.46 700.34 1377.41 700.34 1377.35 700.34C1372.72 700.34 1368.97 704.06 1368.97 708.66C1368.97 713.26 1372.72 716.99 1377.35 716.99" />
		<path id="snow-01" class="shp6" d="M1353 727.89C1353 728.98 1352.1 729.87 1351 729.87C1349.9 729.87 1349 728.98 1349 727.89C1349 726.8 1349.9 725.92 1351 725.92C1352.1 725.92 1353 726.8 1353 727.89ZM1363 727.89C1363 728.98 1362.1 729.87 1361 729.87C1359.9 729.87 1359 728.98 1359 727.89C1359 726.8 1359.9 725.92 1361 725.92C1362.1 725.92 1363 726.8 1363 727.89ZM1373 727.89C1373 728.98 1372.1 729.87 1371 729.87C1369.9 729.87 1369 728.98 1369 727.89C1369 726.8 1369.9 725.92 1371 725.92C1372.1 725.92 1373 726.8 1373 727.89ZM1383 727.89C1383 728.98 1382.1 729.87 1381 729.87C1379.9 729.87 1379 728.98 1379 727.89C1379 726.8 1379.9 725.92 1381 725.92C1382.1 725.92 1383 726.8 1383 727.89ZM1353 743.97C1353 745.06 1352.1 745.94 1351 745.94C1349.9 745.94 1349 745.06 1349 743.97C1349 742.88 1349.9 741.99 1351 741.99C1352.1 741.99 1353 742.88 1353 743.97ZM1363 743.97C1363 745.06 1362.1 745.94 1361 745.94C1359.9 745.94 1359 745.06 1359 743.97C1359 742.88 1359.9 741.99 1361 741.99C1362.1 741.99 1363 742.88 1363 743.97ZM1373 743.97C1373 745.06 1372.1 745.94 1371 745.94C1369.9 745.94 1369 745.06 1369 743.97C1369 742.88 1369.9 741.99 1371 741.99C1372.1 741.99 1373 742.88 1373 743.97ZM1383 743.97C1383 745.06 1382.1 745.94 1381 745.94C1379.9 745.94 1379 745.06 1379 743.97C1379 742.88 1379.9 741.99 1381 741.99C1382.1 741.99 1383 742.88 1383 743.97ZM1348 736.07C1348 737.16 1347.1 738.04 1346 738.04C1344.9 738.04 1344 737.16 1344 736.07C1344 734.98 1344.9 734.1 1346 734.1C1347.1 734.1 1348 734.98 1348 736.07ZM1358 736.07C1358 737.16 1357.1 738.04 1356 738.04C1354.9 738.04 1354 737.16 1354 736.07C1354 734.98 1354.9 734.1 1356 734.1C1357.1 734.1 1358 734.98 1358 736.07ZM1368 736.07C1368 737.16 1367.1 738.04 1366 738.04C1364.9 738.04 1364 737.16 1364 736.07C1364 734.98 1364.9 734.1 1366 734.1C1367.1 734.1 1368 734.98 1368 736.07ZM1378 736.07C1378 737.16 1377.1 738.04 1376 738.04C1374.9 738.04 1374 737.16 1374 736.07C1374 734.98 1374.9 734.1 1376 734.1C1377.1 734.1 1378 734.98 1378 736.07Z" />
	</g>
	<g id="Smoke">
		<path id="smoke-01" class="shp0" d="M1059.99 700.49C1059.99 707.95 1053.95 714 1046.49 714C1039.03 714 1032.98 707.95 1032.98 700.49C1032.98 693.03 1039.03 686.99 1046.49 686.99C1053.95 686.99 1059.99 693.03 1059.99 700.49Z" />
		<path id="smoke-04" class="shp3" d="M1052.96 708.47C1052.96 701.57 1058.55 695.97 1065.45 695.97C1072.35 695.97 1077.95 701.57 1077.95 708.47C1077.95 715.37 1072.35 720.96 1065.45 720.96C1058.55 720.96 1052.96 715.37 1052.96 708.47Z" />
		<path id="smoke-05" class="shp3" d="M1092 694.5C1092 700.3 1087.3 705 1081.5 705C1075.7 705 1071 700.3 1071 694.5C1071 688.7 1075.7 684 1081.5 684C1087.3 684 1092 688.7 1092 694.5Z" />
		<path id="smoke-06" class="shp3" d="M1084.81 701.86C1084.81 706.82 1088.84 710.84 1093.8 710.84C1098.76 710.84 1102.79 706.82 1102.79 701.86C1102.79 696.89 1098.76 692.87 1093.8 692.87C1088.84 692.87 1084.81 696.89 1084.81 701.86Z" />
		<path id="smoke-02" class="shp0" d="M1073.87 691.93C1073.87 697.46 1069.38 701.94 1063.85 701.94C1058.32 701.94 1053.84 697.46 1053.84 691.93C1053.84 686.4 1058.32 681.92 1063.85 681.92C1069.38 681.92 1073.87 686.4 1073.87 691.93Z" />
		<path id="smoke-03" class="shp7" d="M1074.84 704.92C1074.84 699.96 1078.87 695.93 1083.83 695.93C1088.79 695.93 1092.81 699.96 1092.81 704.92C1092.81 709.88 1088.79 713.9 1083.83 713.9C1078.87 713.9 1074.84 709.88 1074.84 704.92Z" />
	</g>
	<g id="Sleet">
		<path id="cloud-large" class="shp3" d="M777.24 253.96C783.17 253.96 787.97 249.24 787.97 243.41C787.97 237.59 783.17 232.87 777.24 232.87C777.21 232.87 777.17 232.88 777.13 232.88C776.18 224.47 768.93 217.93 760.12 217.93C753.17 217.93 747.19 222.01 744.51 227.87C744.42 227.87 744.34 227.86 744.25 227.86C736.92 227.86 730.98 233.7 730.98 240.91C730.98 248.11 736.92 253.96 744.25 253.96" />
		<path id="cloud-small-dark" class="shp8" d="M791.18 253.99C794.92 253.99 797.95 250.98 797.95 247.26C797.95 243.55 794.92 240.53 791.18 240.53C791.16 240.53 791.13 240.54 791.11 240.54C790.51 235.17 785.93 231 780.37 231C775.98 231 772.2 233.6 770.51 237.34C770.46 237.34 770.41 237.34 770.35 237.34C765.72 237.34 761.97 241.06 761.97 245.66C761.97 250.26 765.72 253.99 770.35 253.99" />
		<path id="rain-03" class="shp9" d="M737.18 276.7C736.84 276.7 736.49 276.61 736.17 276.43C735.2 275.86 734.87 274.62 735.43 273.65L742.01 262.2C742.57 261.23 743.81 260.9 744.78 261.46C745.75 262.02 746.08 263.27 745.52 264.24L738.94 275.68C738.56 276.33 737.88 276.7 737.18 276.7ZM744.41 282.86C744.07 282.86 743.72 282.78 743.4 282.59C742.43 282.03 742.1 280.79 742.66 279.81L752.78 262.2C753.34 261.23 754.58 260.9 755.55 261.46C756.52 262.02 756.85 263.27 756.29 264.24L746.17 281.85C745.79 282.5 745.11 282.86 744.41 282.86Z" />
		<path id="snow-03" class="shp10" d="M767 260.87C768.1 260.87 769 261.79 769 262.91C769 264.03 768.1 264.94 767 264.94C765.9 264.94 765 264.03 765 262.91C765 261.79 765.9 260.87 767 260.87M777 260.87C778.1 260.87 779 261.79 779 262.91C779 264.03 778.1 264.94 777 264.94C775.9 264.94 775 264.03 775 262.91C775 261.79 775.9 260.87 777 260.87M760 279.81C760 280.93 759.1 281.84 758 281.84C756.9 281.84 756 280.93 756 279.81C756 278.68 756.9 277.77 758 277.77C759.1 277.77 760 278.68 760 279.81ZM761 271.16C761 270.03 761.9 269.12 763 269.12C764.1 269.12 765 270.03 765 271.16C765 272.28 764.1 273.19 763 273.19C761.9 273.19 761 272.28 761 271.16M775 271.16C775 272.28 774.1 273.19 773 273.19C771.9 273.19 771 272.28 771 271.16C771 270.03 771.9 269.12 773 269.12C774.1 269.12 775 270.03 775 271.16Z" />
	</g>
	<g id="Sleet Night">
		<path id="moon-small" class="shp11" d="M1542.68 400.95C1534.55 400.95 1527.93 394.34 1527.93 386.21C1527.93 379.67 1532.32 373.85 1538.61 372.04C1538.88 371.97 1539.17 372.04 1539.37 372.24C1539.56 372.44 1539.64 372.73 1539.56 373C1539.22 374.21 1539.04 375.43 1539.04 376.64C1539.04 383.92 1544.96 389.84 1552.24 389.84C1553.45 389.84 1554.68 389.67 1555.88 389.32C1556.15 389.25 1556.44 389.32 1556.64 389.52C1556.84 389.72 1556.92 390.01 1556.84 390.28C1555.03 396.56 1549.21 400.95 1542.68 400.95Z" />
		<path id="cloud-large-night" class="shp12" d="M1536.24 415.96C1542.17 415.96 1546.97 411.24 1546.97 405.41C1546.97 399.59 1542.17 394.87 1536.24 394.87C1536.21 394.87 1536.17 394.88 1536.13 394.88C1535.18 386.47 1527.93 379.93 1519.12 379.93C1512.17 379.93 1506.19 384.01 1503.51 389.87C1503.42 389.87 1503.34 389.86 1503.25 389.86C1495.92 389.86 1489.98 395.7 1489.98 402.91C1489.98 410.11 1495.92 415.96 1503.25 415.96" />
		<path id="cloud-small" class="shp3" d="M1550.18 415.99C1553.92 415.99 1556.95 412.98 1556.95 409.26C1556.95 405.55 1553.92 402.53 1550.18 402.53C1550.16 402.53 1550.13 402.54 1550.11 402.54C1549.51 397.17 1544.93 393 1539.37 393C1534.98 393 1531.2 395.6 1529.51 399.34C1529.46 399.34 1529.41 399.34 1529.35 399.34C1524.72 399.34 1520.97 403.06 1520.97 407.66C1520.97 412.26 1524.72 415.99 1529.35 415.99" />
		<path id="rain-03" class="shp13" d="M1495.18 438.7C1494.84 438.7 1494.49 438.61 1494.17 438.43C1493.2 437.86 1492.87 436.62 1493.43 435.65L1500.01 424.2C1500.57 423.23 1501.81 422.9 1502.78 423.46C1503.75 424.02 1504.08 425.27 1503.52 426.24L1496.94 437.68C1496.56 438.33 1495.88 438.7 1495.18 438.7ZM1502.41 444.86C1502.07 444.86 1501.72 444.78 1501.4 444.59C1500.43 444.03 1500.1 442.79 1500.66 441.81L1510.78 424.2C1511.34 423.23 1512.58 422.9 1513.55 423.46C1514.52 424.02 1514.85 425.27 1514.29 426.24L1504.17 443.85C1503.79 444.5 1503.11 444.86 1502.41 444.86Z" />
		<path id="snow-03" class="shp14" d="M1525 422.87C1526.1 422.87 1527 423.79 1527 424.91C1527 426.03 1526.1 426.94 1525 426.94C1523.9 426.94 1523 426.03 1523 424.91C1523 423.79 1523.9 422.87 1525 422.87M1535 422.87C1536.1 422.87 1537 423.79 1537 424.91C1537 426.03 1536.1 426.94 1535 426.94C1533.9 426.94 1533 426.03 1533 424.91C1533 423.79 1533.9 422.87 1535 422.87M1518 441.81C1518 442.93 1517.1 443.84 1516 443.84C1514.9 443.84 1514 442.93 1514 441.81C1514 440.68 1514.9 439.77 1516 439.77C1517.1 439.77 1518 440.68 1518 441.81ZM1519 433.16C1519 432.03 1519.9 431.12 1521 431.12C1522.1 431.12 1523 432.03 1523 433.16C1523 434.28 1522.1 435.19 1521 435.19C1519.9 435.19 1519 434.28 1519 433.16M1533 433.16C1533 434.28 1532.1 435.19 1531 435.19C1529.9 435.19 1529 434.28 1529 433.16C1529 432.03 1529.9 431.12 1531 431.12C1532.1 431.12 1533 432.03 1533 433.16Z" />
	</g>
	<g id="Severe Thunderstorm Night">
		<path id="lightning" class="shp15" d="M1214.63 248.98C1212.97 248.98 1210.93 250.16 1210.1 251.6L1204.81 260.79C1203.98 262.23 1204.65 263.3 1206.31 263.18L1210.64 262.86C1212.29 262.74 1213 263.84 1212.2 265.3L1207.39 274.17C1206.6 275.63 1207 275.96 1208.28 274.91L1225.68 260.57C1226.97 259.51 1226.66 258.72 1225 258.8L1218.35 259.15C1216.69 259.23 1216.02 258.12 1216.85 256.68L1219.77 251.6C1220.6 250.16 1219.92 248.99 1218.26 248.98L1214.63 248.98Z" />
		<path id="moon-small" class="shp16" d="M1239.68 236.95C1231.55 236.95 1224.93 230.34 1224.93 222.21C1224.93 215.67 1229.32 209.85 1235.61 208.04C1235.88 207.97 1236.17 208.04 1236.37 208.24C1236.56 208.44 1236.64 208.73 1236.56 209C1236.22 210.21 1236.04 211.43 1236.04 212.64C1236.04 219.92 1241.96 225.84 1249.24 225.84C1250.45 225.84 1251.68 225.67 1252.88 225.32C1253.15 225.25 1253.44 225.32 1253.64 225.52C1253.84 225.72 1253.92 226.01 1253.84 226.28C1252.03 232.56 1246.21 236.95 1239.68 236.95Z" />
		<path id="cloud-large-night" class="shp17" d="M1232.24 252.96C1238.17 252.96 1242.97 248.24 1242.97 242.41C1242.97 236.59 1238.17 231.87 1232.24 231.87C1232.21 231.87 1232.17 231.88 1232.13 231.88C1231.18 223.47 1223.93 216.93 1215.12 216.93C1208.17 216.93 1202.19 221.01 1199.51 226.87C1199.42 226.87 1199.34 226.86 1199.25 226.86C1191.92 226.86 1185.98 232.7 1185.98 239.91C1185.98 247.11 1191.92 252.96 1199.25 252.96" />
		<path id="cloud-small" class="shp3" d="M1246.18 252.99C1249.92 252.99 1252.95 249.98 1252.95 246.26C1252.95 242.55 1249.92 239.53 1246.18 239.53C1246.16 239.53 1246.13 239.54 1246.11 239.54C1245.51 234.17 1240.93 230 1235.37 230C1230.98 230 1227.2 232.6 1225.51 236.34C1225.46 236.34 1225.41 236.34 1225.35 236.34C1220.72 236.34 1216.97 240.06 1216.97 244.66C1216.97 249.26 1220.72 252.99 1225.35 252.99" />
	</g>
	<g id="Severe Thunderstorm">
		<path id="lightning" class="shp18" d="M1365.63 562.98C1363.97 562.98 1361.93 564.16 1361.1 565.6L1355.81 574.79C1354.98 576.23 1355.65 577.3 1357.31 577.18L1361.64 576.86C1363.29 576.74 1364 577.84 1363.2 579.3L1358.39 588.17C1357.6 589.63 1358 589.96 1359.28 588.91L1376.68 574.57C1377.97 573.51 1377.66 572.72 1376 572.8L1369.35 573.15C1367.69 573.23 1367.02 572.12 1367.85 570.68L1370.77 565.6C1371.6 564.16 1370.92 562.99 1369.26 562.98L1365.63 562.98Z" />
		<path id="cloud-large" class="shp3" d="M1384.24 565.96C1390.17 565.96 1394.97 561.24 1394.97 555.41C1394.97 549.59 1390.17 544.87 1384.24 544.87C1384.21 544.87 1384.17 544.88 1384.13 544.88C1383.18 536.47 1375.93 529.93 1367.12 529.93C1360.17 529.93 1354.19 534.01 1351.51 539.87C1351.42 539.87 1351.34 539.86 1351.25 539.86C1343.92 539.86 1337.98 545.7 1337.98 552.91C1337.98 560.11 1343.92 565.96 1351.25 565.96" />
		<path id="cloud-small-dark" class="shp19" d="M1398.18 565.99C1401.92 565.99 1404.95 562.98 1404.95 559.26C1404.95 555.55 1401.92 552.53 1398.18 552.53C1398.16 552.53 1398.13 552.54 1398.11 552.54C1397.51 547.17 1392.93 543 1387.37 543C1382.98 543 1379.2 545.6 1377.51 549.34C1377.46 549.34 1377.41 549.34 1377.35 549.34C1372.72 549.34 1368.97 553.06 1368.97 557.66C1368.97 562.26 1372.72 565.99 1377.35 565.99" />
	</g>
	<g id="Scattered Thunderstorm Night">
		<path id="lightning" class="shp20" d="M1213.63 712.98C1211.97 712.98 1209.93 714.16 1209.1 715.6L1203.81 724.79C1202.98 726.23 1203.65 727.3 1205.31 727.18L1209.64 726.86C1211.29 726.74 1212 727.84 1211.2 729.3L1206.39 738.17C1205.6 739.63 1206 739.96 1207.28 738.91L1224.68 724.57C1225.97 723.51 1225.66 722.72 1224 722.8L1217.35 723.15C1215.69 723.23 1215.02 722.12 1215.85 720.68L1218.77 715.6C1219.6 714.16 1218.92 712.99 1217.26 712.98L1213.63 712.98Z" />
		<path id="moon-small" class="shp21" d="M1238.68 699.95C1230.55 699.95 1223.93 693.34 1223.93 685.21C1223.93 678.67 1228.32 672.85 1234.61 671.04C1234.88 670.97 1235.17 671.04 1235.37 671.24C1235.56 671.44 1235.64 671.73 1235.56 672C1235.22 673.21 1235.04 674.43 1235.04 675.64C1235.04 682.92 1240.96 688.84 1248.24 688.84C1249.45 688.84 1250.68 688.67 1251.88 688.32C1252.15 688.25 1252.44 688.32 1252.64 688.52C1252.84 688.72 1252.92 689.01 1252.84 689.28C1251.03 695.56 1245.21 699.95 1238.68 699.95Z" />
		<path id="star-01" class="shp22" d="M1249.32 678.32C1249.04 679.36 1248.57 679.36 1248.29 678.32C1248.01 677.28 1246.92 676.2 1245.88 675.92C1244.84 675.63 1244.84 675.17 1245.88 674.89C1246.92 674.6 1248.01 673.52 1248.29 672.48C1248.57 671.44 1249.04 671.44 1249.32 672.48C1249.6 673.52 1250.69 674.6 1251.73 674.89C1252.77 675.17 1252.77 675.63 1251.73 675.92C1250.69 676.2 1249.6 677.28 1249.32 678.32Z" />
		<path id="star-03" class="shp23" d="M1193.87 681.97C1193.65 682.76 1193.3 682.76 1193.08 681.97C1192.87 681.18 1192.04 680.35 1191.24 680.13C1190.45 679.92 1190.45 679.56 1191.24 679.35C1192.04 679.13 1192.87 678.31 1193.08 677.51C1193.3 676.72 1193.65 676.72 1193.87 677.51C1194.08 678.31 1194.91 679.13 1195.7 679.35C1196.5 679.56 1196.5 679.92 1195.7 680.13C1194.91 680.35 1194.08 681.18 1193.87 681.97Z" />
		<path id="cloud-large-night" class="shp24" d="M1232.24 716.96C1238.17 716.96 1242.97 712.24 1242.97 706.41C1242.97 700.59 1238.17 695.87 1232.24 695.87C1232.21 695.87 1232.17 695.88 1232.13 695.88C1231.18 687.47 1223.93 680.93 1215.12 680.93C1208.17 680.93 1202.19 685.01 1199.51 690.87C1199.42 690.87 1199.34 690.86 1199.25 690.86C1191.92 690.86 1185.98 696.7 1185.98 703.91C1185.98 711.11 1191.92 716.96 1199.25 716.96" />
		<path id="cloud-small" class="shp3" d="M1246.18 716.99C1249.92 716.99 1252.95 713.98 1252.95 710.26C1252.95 706.55 1249.92 703.53 1246.18 703.53C1246.16 703.53 1246.13 703.54 1246.11 703.54C1245.51 698.17 1240.93 694 1235.37 694C1230.98 694 1227.2 696.6 1225.51 700.34C1225.46 700.34 1225.41 700.34 1225.35 700.34C1220.72 700.34 1216.97 704.06 1216.97 708.66C1216.97 713.26 1220.72 716.99 1225.35 716.99" />
	</g>
	<g id="Scattered Thunderstorm">
		<path id="sun-small" class="shp25" d="M338.99 388C338.99 395.18 333.17 401 325.99 401C318.82 401 313 395.18 313 388C313 380.82 318.82 375 325.99 375C333.17 375 338.99 380.82 338.99 388Z" />
		<path id="lightning" class="shp26" d="M304.63 411.98C302.97 411.98 300.93 413.16 300.1 414.6L294.81 423.79C293.98 425.23 294.65 426.3 296.31 426.18L300.64 425.86C302.29 425.74 303 426.84 302.2 428.3L297.39 437.17C296.6 438.63 297 438.96 298.28 437.91L315.68 423.57C316.97 422.51 316.66 421.72 315 421.8L308.35 422.15C306.69 422.23 306.02 421.12 306.85 419.68L309.77 414.6C310.6 413.16 309.92 411.99 308.26 411.98L304.63 411.98Z" />
		<path id="cloud-large" class="shp3" d="M323.24 415.96C329.17 415.96 333.97 411.24 333.97 405.41C333.97 399.59 329.17 394.87 323.24 394.87C323.21 394.87 323.17 394.88 323.13 394.88C322.18 386.47 314.93 379.93 306.12 379.93C299.17 379.93 293.19 384.01 290.51 389.87C290.42 389.87 290.34 389.86 290.25 389.86C282.92 389.86 276.98 395.7 276.98 402.91C276.98 410.11 282.92 415.96 290.25 415.96" />
		<path id="cloud-small-dark" class="shp27" d="M337.18 415.99C340.92 415.99 343.95 412.98 343.95 409.26C343.95 405.55 340.92 402.53 337.18 402.53C337.16 402.53 337.13 402.54 337.11 402.54C336.51 397.17 331.93 393 326.37 393C321.98 393 318.2 395.6 316.51 399.34C316.46 399.34 316.41 399.34 316.35 399.34C311.72 399.34 307.97 403.06 307.97 407.66C307.97 412.26 311.72 415.99 316.35 415.99" />
	</g>
	<g id="Scattered Showers Night">
		<path id="moon-small" class="shp28" d="M1541.68 700.95C1533.55 700.95 1526.93 694.34 1526.93 686.21C1526.93 679.67 1531.32 673.85 1537.61 672.04C1537.88 671.97 1538.17 672.04 1538.37 672.24C1538.56 672.44 1538.64 672.73 1538.56 673C1538.22 674.21 1538.04 675.43 1538.04 676.64C1538.04 683.92 1543.96 689.84 1551.24 689.84C1552.45 689.84 1553.68 689.67 1554.88 689.32C1555.15 689.25 1555.44 689.32 1555.64 689.52C1555.84 689.72 1555.92 690.01 1555.84 690.28C1554.03 696.56 1548.21 700.95 1541.68 700.95Z" />
		<path id="cloud-large-night" class="shp29" d="M1536.24 715.96C1542.17 715.96 1546.97 711.24 1546.97 705.41C1546.97 699.59 1542.17 694.87 1536.24 694.87C1536.21 694.87 1536.17 694.88 1536.13 694.88C1535.18 686.47 1527.93 679.93 1519.12 679.93C1512.17 679.93 1506.19 684.01 1503.51 689.87C1503.42 689.87 1503.34 689.86 1503.25 689.86C1495.92 689.86 1489.98 695.7 1489.98 702.91C1489.98 710.11 1495.92 715.96 1503.25 715.96" />
		<path id="cloud-small" class="shp3" d="M1550.18 715.99C1553.92 715.99 1556.95 712.98 1556.95 709.26C1556.95 705.55 1553.92 702.53 1550.18 702.53C1550.16 702.53 1550.13 702.54 1550.11 702.54C1549.51 697.17 1544.93 693 1539.37 693C1534.98 693 1531.2 695.6 1529.51 699.34C1529.46 699.34 1529.41 699.34 1529.35 699.34C1524.72 699.34 1520.97 703.06 1520.97 707.66C1520.97 712.26 1524.72 715.99 1529.35 715.99" />
		<path id="rain-06" class="shp30" d="M1501.24 732.72C1500.9 732.72 1500.56 732.64 1500.24 732.46C1499.27 731.92 1498.94 730.73 1499.5 729.8L1502.41 724.92C1502.97 723.99 1504.2 723.67 1505.17 724.21C1506.13 724.75 1506.46 725.94 1505.9 726.87L1502.99 731.75C1502.62 732.37 1501.94 732.72 1501.24 732.72ZM1514.97 732.72C1514.63 732.72 1514.28 732.64 1513.97 732.46C1513 731.92 1512.67 730.73 1513.23 729.8L1516.14 724.92C1516.7 723.99 1517.93 723.67 1518.89 724.21C1519.86 724.75 1520.19 725.94 1519.63 726.87L1516.72 731.75C1516.35 732.37 1515.67 732.72 1514.97 732.72ZM1529.71 732.72C1529.37 732.72 1529.02 732.64 1528.7 732.46C1527.74 731.92 1527.41 730.73 1527.96 729.8L1530.87 724.92C1531.43 723.99 1532.66 723.67 1533.63 724.21C1534.6 724.75 1534.92 725.94 1534.37 726.87L1531.46 731.75C1531.08 732.37 1530.41 732.72 1529.71 732.72Z" />
	</g>
	<g id="Scattered Showers">
		<path id="sun-small" class="shp31" d="M943.99 687C943.99 694.18 938.17 700 930.99 700C923.82 700 918 694.18 918 687C918 679.82 923.82 674 930.99 674C938.17 674 943.99 679.82 943.99 687Z" />
		<path id="cloud-large" class="shp3" d="M929.24 715.96C935.17 715.96 939.97 711.24 939.97 705.41C939.97 699.59 935.17 694.87 929.24 694.87C929.21 694.87 929.17 694.88 929.13 694.88C928.18 686.47 920.93 679.93 912.12 679.93C905.17 679.93 899.19 684.01 896.51 689.87C896.42 689.87 896.34 689.86 896.25 689.86C888.92 689.86 882.98 695.7 882.98 702.91C882.98 710.11 888.92 715.96 896.25 715.96" />
		<path id="cloud-small-dark" class="shp32" d="M943.18 715.99C946.92 715.99 949.95 712.98 949.95 709.26C949.95 705.55 946.92 702.53 943.18 702.53C943.16 702.53 943.13 702.54 943.11 702.54C942.51 697.17 937.93 693 932.37 693C927.98 693 924.2 695.6 922.51 699.34C922.46 699.34 922.41 699.34 922.35 699.34C917.72 699.34 913.97 703.06 913.97 707.66C913.97 712.26 917.72 715.99 922.35 715.99" />
		<path id="rain-06" class="shp33" d="M895.24 732.72C894.9 732.72 894.56 732.64 894.24 732.46C893.27 731.92 892.94 730.73 893.5 729.8L896.41 724.92C896.97 723.99 898.2 723.67 899.17 724.21C900.13 724.75 900.46 725.94 899.9 726.87L896.99 731.75C896.62 732.37 895.94 732.72 895.24 732.72ZM908.97 732.72C908.63 732.72 908.28 732.64 907.97 732.46C907 731.92 906.67 730.73 907.23 729.8L910.14 724.92C910.7 723.99 911.93 723.67 912.89 724.21C913.86 724.75 914.19 725.94 913.63 726.87L910.72 731.75C910.35 732.37 909.67 732.72 908.97 732.72ZM923.71 732.72C923.37 732.72 923.02 732.64 922.7 732.46C921.74 731.92 921.41 730.73 921.96 729.8L924.87 724.92C925.43 723.99 926.66 723.67 927.63 724.21C928.6 724.75 928.92 725.94 928.37 726.87L925.46 731.75C925.08 732.37 924.41 732.72 923.71 732.72Z" />
	</g>
	<g id="Rain Nght">
		<path id="moon-small" class="shp34" d="M1087.68 400.95C1079.55 400.95 1072.93 394.34 1072.93 386.21C1072.93 379.67 1077.32 373.85 1083.61 372.04C1083.88 371.97 1084.17 372.04 1084.37 372.24C1084.56 372.44 1084.64 372.73 1084.56 373C1084.22 374.21 1084.04 375.43 1084.04 376.64C1084.04 383.92 1089.96 389.84 1097.24 389.84C1098.45 389.84 1099.68 389.67 1100.88 389.32C1101.15 389.25 1101.44 389.32 1101.64 389.52C1101.84 389.72 1101.92 390.01 1101.84 390.28C1100.03 396.56 1094.21 400.95 1087.68 400.95Z" />
		<path id="cloud-large-night" class="shp35" d="M1081.24 415.96C1087.17 415.96 1091.97 411.24 1091.97 405.41C1091.97 399.59 1087.17 394.87 1081.24 394.87C1081.21 394.87 1081.17 394.88 1081.13 394.88C1080.18 386.47 1072.93 379.93 1064.12 379.93C1057.17 379.93 1051.19 384.01 1048.51 389.87C1048.42 389.87 1048.34 389.86 1048.25 389.86C1040.92 389.86 1034.98 395.7 1034.98 402.91C1034.98 410.11 1040.92 415.96 1048.25 415.96" />
		<path id="cloud-small" class="shp3" d="M1095.18 415.99C1098.92 415.99 1101.95 412.98 1101.95 409.26C1101.95 405.55 1098.92 402.53 1095.18 402.53C1095.16 402.53 1095.13 402.54 1095.11 402.54C1094.51 397.17 1089.93 393 1084.37 393C1079.98 393 1076.2 395.6 1074.51 399.34C1074.46 399.34 1074.41 399.34 1074.35 399.34C1069.72 399.34 1065.97 403.06 1065.97 407.66C1065.97 412.26 1069.72 415.99 1074.35 415.99" />
		<path id="rain-01" class="shp36" d="M1040.17 438.67C1039.84 438.67 1039.5 438.58 1039.18 438.39C1038.24 437.83 1037.91 436.57 1038.46 435.59L1044.9 424.04C1045.44 423.06 1046.66 422.72 1047.6 423.29C1048.55 423.86 1048.87 425.11 1048.33 426.09L1041.89 437.64C1041.52 438.3 1040.86 438.67 1040.17 438.67ZM1051.2 438.67C1050.87 438.67 1050.52 438.58 1050.21 438.39C1049.27 437.83 1048.94 436.57 1049.49 435.59L1055.93 424.04C1056.47 423.06 1057.68 422.72 1058.63 423.29C1059.58 423.86 1059.9 425.11 1059.36 426.09L1052.92 437.64C1052.55 438.3 1051.89 438.67 1051.2 438.67ZM1062.23 438.67C1061.89 438.67 1061.55 438.58 1061.24 438.39C1060.29 437.83 1059.97 436.57 1060.52 435.59L1066.95 424.04C1067.5 423.06 1068.71 422.72 1069.66 423.29C1070.61 423.86 1070.93 425.11 1070.38 426.09L1063.95 437.64C1063.58 438.3 1062.91 438.67 1062.23 438.67Z" />
	</g>
	<g id="Rain">
		<path id="cloud-large" class="shp3" d="M626.24 415.96C632.17 415.96 636.97 411.24 636.97 405.41C636.97 399.59 632.17 394.87 626.24 394.87C626.21 394.87 626.17 394.88 626.13 394.88C625.18 386.47 617.93 379.93 609.12 379.93C602.17 379.93 596.19 384.01 593.51 389.87C593.42 389.87 593.34 389.86 593.25 389.86C585.92 389.86 579.98 395.7 579.98 402.91C579.98 410.11 585.92 415.96 593.25 415.96" />
		<path id="cloud-small-dark" class="shp37" d="M640.18 415.99C643.92 415.99 646.95 412.98 646.95 409.26C646.95 405.55 643.92 402.53 640.18 402.53C640.16 402.53 640.13 402.54 640.11 402.54C639.51 397.17 634.93 393 629.37 393C624.98 393 621.2 395.6 619.51 399.34C619.46 399.34 619.41 399.34 619.35 399.34C614.72 399.34 610.97 403.06 610.97 407.66C610.97 412.26 614.72 415.99 619.35 415.99" />
		<path id="rain-01" class="shp38" d="M586.17 438.67C585.84 438.67 585.5 438.58 585.18 438.39C584.24 437.83 583.91 436.57 584.46 435.59L590.9 424.04C591.44 423.06 592.66 422.72 593.6 423.29C594.55 423.86 594.87 425.11 594.33 426.09L587.89 437.64C587.52 438.3 586.86 438.67 586.17 438.67ZM597.2 438.67C596.87 438.67 596.52 438.58 596.21 438.39C595.27 437.83 594.94 436.57 595.49 435.59L601.93 424.04C602.47 423.06 603.68 422.72 604.63 423.29C605.58 423.86 605.9 425.11 605.36 426.09L598.92 437.64C598.55 438.3 597.89 438.67 597.2 438.67ZM608.23 438.67C607.89 438.67 607.55 438.58 607.24 438.39C606.29 437.83 605.97 436.57 606.52 435.59L612.95 424.04C613.5 423.06 614.71 422.72 615.66 423.29C616.61 423.86 616.93 425.11 616.38 426.09L609.95 437.64C609.58 438.3 608.91 438.67 608.23 438.67Z" />
	</g>
	<g id="Party Cloudy Night">
		<path id="moon-small" class="shp39" d="M1087.68 237.95C1079.55 237.95 1072.93 231.34 1072.93 223.21C1072.93 216.67 1077.32 210.85 1083.61 209.04C1083.88 208.97 1084.17 209.04 1084.37 209.24C1084.56 209.44 1084.64 209.73 1084.56 210C1084.22 211.21 1084.04 212.43 1084.04 213.64C1084.04 220.92 1089.96 226.84 1097.24 226.84C1098.45 226.84 1099.68 226.67 1100.88 226.32C1101.15 226.25 1101.44 226.32 1101.64 226.52C1101.84 226.72 1101.92 227.01 1101.84 227.28C1100.03 233.56 1094.21 237.95 1087.68 237.95Z" />
		<path id="star-01" class="shp40" d="M1097.32 216.32C1097.04 217.36 1096.57 217.36 1096.29 216.32C1096.01 215.28 1094.92 214.2 1093.88 213.92C1092.84 213.63 1092.84 213.17 1093.88 212.89C1094.92 212.6 1096.01 211.52 1096.29 210.48C1096.57 209.44 1097.04 209.44 1097.32 210.48C1097.6 211.52 1098.69 212.6 1099.73 212.89C1100.77 213.17 1100.77 213.63 1099.73 213.92C1098.69 214.2 1097.6 215.28 1097.32 216.32Z" />
		<path id="star-03" class="shp41" d="M1041.87 218.97C1041.65 219.76 1041.3 219.76 1041.08 218.97C1040.87 218.18 1040.04 217.35 1039.24 217.13C1038.45 216.92 1038.45 216.56 1039.24 216.35C1040.04 216.13 1040.87 215.31 1041.08 214.51C1041.3 213.72 1041.65 213.72 1041.87 214.51C1042.08 215.31 1042.91 216.13 1043.7 216.35C1044.5 216.56 1044.5 216.92 1043.7 217.13C1042.91 217.35 1042.08 218.18 1041.87 218.97Z" />
		<path id="cloud-large-night" class="shp42" d="M1081.24 252.96C1087.17 252.96 1091.97 248.24 1091.97 242.41C1091.97 236.59 1087.17 231.87 1081.24 231.87C1081.21 231.87 1081.17 231.88 1081.13 231.88C1080.18 223.47 1072.93 216.93 1064.12 216.93C1057.17 216.93 1051.19 221.01 1048.51 226.87C1048.42 226.87 1048.34 226.86 1048.25 226.86C1040.92 226.86 1034.98 232.7 1034.98 239.91C1034.98 247.11 1040.92 252.96 1048.25 252.96" />
		<path id="cloud-small" class="shp3" d="M1095.18 252.99C1098.92 252.99 1101.95 249.98 1101.95 246.26C1101.95 242.55 1098.92 239.53 1095.18 239.53C1095.16 239.53 1095.13 239.54 1095.11 239.54C1094.51 234.17 1089.93 230 1084.37 230C1079.98 230 1076.2 232.6 1074.51 236.34C1074.46 236.34 1074.41 236.34 1074.35 236.34C1069.72 236.34 1065.97 240.06 1065.97 244.66C1065.97 249.26 1069.72 252.99 1074.35 252.99" />
	</g>
	<g id="Party Cloudy">
		<path id="sun-small" class="shp43" d="M792.99 542C792.99 549.18 787.17 555 779.99 555C772.82 555 767 549.18 767 542C767 534.82 772.82 529 779.99 529C787.17 529 792.99 534.82 792.99 542Z" />
		<path id="cloud-large" class="shp3" d="M777.24 570.96C783.17 570.96 787.97 566.24 787.97 560.41C787.97 554.59 783.17 549.87 777.24 549.87C777.21 549.87 777.17 549.88 777.13 549.88C776.18 541.47 768.93 534.93 760.12 534.93C753.17 534.93 747.19 539.01 744.51 544.87C744.42 544.87 744.34 544.86 744.25 544.86C736.92 544.86 730.98 550.7 730.98 557.91C730.98 565.11 736.92 570.96 744.25 570.96" />
		<path id="cloud-small-dark" class="shp44" d="M791.18 570.99C794.92 570.99 797.95 567.98 797.95 564.26C797.95 560.55 794.92 557.53 791.18 557.53C791.16 557.53 791.13 557.54 791.11 557.54C790.51 552.17 785.93 548 780.37 548C775.98 548 772.2 550.6 770.51 554.34C770.46 554.34 770.41 554.34 770.35 554.34C765.72 554.34 761.97 558.06 761.97 562.66C761.97 567.26 765.72 570.99 770.35 570.99" />
	</g>
	<g id="Mostly Cloudy Night">
		<path id="moon-small" class="shp45" d="M1542.68 550.95C1534.55 550.95 1527.93 544.34 1527.93 536.21C1527.93 529.67 1532.32 523.85 1538.61 522.04C1538.88 521.97 1539.17 522.04 1539.37 522.24C1539.56 522.44 1539.64 522.73 1539.56 523C1539.22 524.21 1539.04 525.43 1539.04 526.64C1539.04 533.92 1544.96 539.84 1552.24 539.84C1553.45 539.84 1554.68 539.67 1555.88 539.32C1556.15 539.25 1556.44 539.32 1556.64 539.52C1556.84 539.72 1556.92 540.01 1556.84 540.28C1555.03 546.56 1549.21 550.95 1542.68 550.95Z" />
		<path id="cloud-large-night" class="shp46" d="M1536.24 566.96C1542.17 566.96 1546.97 562.24 1546.97 556.41C1546.97 550.59 1542.17 545.87 1536.24 545.87C1536.21 545.87 1536.17 545.88 1536.13 545.88C1535.18 537.47 1527.93 530.93 1519.12 530.93C1512.17 530.93 1506.19 535.01 1503.51 540.87C1503.42 540.87 1503.34 540.86 1503.25 540.86C1495.92 540.86 1489.98 546.7 1489.98 553.91C1489.98 561.11 1495.92 566.96 1503.25 566.96" />
		<path id="cloud-small" class="shp3" d="M1550.18 566.99C1553.92 566.99 1556.95 563.98 1556.95 560.26C1556.95 556.55 1553.92 553.53 1550.18 553.53C1550.16 553.53 1550.13 553.54 1550.11 553.54C1549.51 548.17 1544.93 544 1539.37 544C1534.98 544 1531.2 546.6 1529.51 550.34C1529.46 550.34 1529.41 550.34 1529.35 550.34C1524.72 550.34 1520.97 554.06 1520.97 558.66C1520.97 563.26 1524.72 566.99 1529.35 566.99" />
	</g>
	<g id="Mostly Cloudy">
		<path id="cloud-large" class="shp3" d="M929.24 415.96C935.17 415.96 939.97 411.24 939.97 405.41C939.97 399.59 935.17 394.87 929.24 394.87C929.21 394.87 929.17 394.88 929.13 394.88C928.18 386.47 920.93 379.93 912.12 379.93C905.17 379.93 899.19 384.01 896.51 389.87C896.42 389.87 896.34 389.86 896.25 389.86C888.92 389.86 882.98 395.7 882.98 402.91C882.98 410.11 888.92 415.96 896.25 415.96" />
		<path id="cloud-small-dark" class="shp47" d="M943.18 415.99C946.92 415.99 949.95 412.98 949.95 409.26C949.95 405.55 946.92 402.53 943.18 402.53C943.16 402.53 943.13 402.54 943.11 402.54C942.51 397.17 937.93 393 932.37 393C927.98 393 924.2 395.6 922.51 399.34C922.46 399.34 922.41 399.34 922.35 399.34C917.72 399.34 913.97 403.06 913.97 407.66C913.97 412.26 917.72 415.99 922.35 415.99" />
	</g>
	<g id="Mostly Sunny">
		<path id="sun" class="shp48" d="M936.99 551.5C936.99 562.82 927.82 572 916.5 572C905.18 572 896 562.82 896 551.5C896 540.18 905.18 531 916.5 531C927.82 531 936.99 540.18 936.99 551.5Z" />
	</g>
	<g id="Mix Rainfall Night">
		<path id="lightning" class="shp49" d="M48.63 46.98C46.97 46.98 44.93 48.16 44.1 49.6L38.81 58.79C37.98 60.23 38.65 61.3 40.31 61.18L44.64 60.86C46.29 60.74 47 61.84 46.2 63.3L41.39 72.17C40.6 73.63 41 73.96 42.28 72.91L59.68 58.57C60.97 57.51 60.66 56.72 59 56.8L52.35 57.15C50.69 57.23 50.02 56.12 50.85 54.68L53.77 49.6C54.6 48.16 53.92 46.99 52.26 46.98L48.63 46.98Z" />
		<path id="moon-small" class="shp50" d="M59.68 34.95C51.55 34.95 44.93 28.34 44.93 20.21C44.93 13.67 49.32 7.85 55.61 6.04C55.88 5.97 56.17 6.04 56.37 6.24C56.56 6.44 56.64 6.73 56.56 7C56.22 8.21 56.04 9.43 56.04 10.64C56.04 17.92 61.96 23.84 69.24 23.84C70.45 23.84 71.68 23.67 72.88 23.32C73.15 23.25 73.44 23.32 73.64 23.52C73.84 23.72 73.92 24.01 73.84 24.28C72.03 30.56 66.21 34.95 59.68 34.95Z" />
		<path id="cloud-large-night" class="shp51" d="M53.24 50.96C59.17 50.96 63.97 46.24 63.97 40.41C63.97 34.59 59.17 29.87 53.24 29.87C53.21 29.87 53.17 29.88 53.13 29.88C52.18 21.47 44.93 14.93 36.12 14.93C29.17 14.93 23.19 19.01 20.51 24.87C20.42 24.87 20.34 24.86 20.25 24.86C12.92 24.86 6.98 30.7 6.98 37.91C6.98 45.11 12.92 50.96 20.25 50.96" />
		<path id="cloud-small" class="shp3" d="M67.18 50.99C70.92 50.99 73.95 47.98 73.95 44.26C73.95 40.55 70.92 37.53 67.18 37.53C67.16 37.53 67.13 37.54 67.11 37.54C66.51 32.17 61.93 28 56.37 28C51.98 28 48.2 30.6 46.51 34.34C46.46 34.34 46.41 34.34 46.35 34.34C41.72 34.34 37.97 38.06 37.97 42.66C37.97 47.26 41.72 50.99 46.35 50.99" />
		<path id="rain-02" class="shp52" d="M12.18 73.67C11.83 73.67 11.49 73.58 11.17 73.39C10.2 72.82 9.87 71.57 10.43 70.59L17.01 59.04C17.57 58.05 18.81 57.72 19.77 58.28C20.74 58.85 21.07 60.11 20.52 61.09L13.93 72.64C13.56 73.3 12.88 73.67 12.18 73.67ZM22.95 73.67C22.6 73.67 22.26 73.58 21.94 73.39C20.97 72.82 20.64 71.57 21.19 70.59L27.78 59.04C28.33 58.05 29.57 57.72 30.54 58.28C31.51 58.85 31.84 60.11 31.28 61.09L24.7 72.64C24.33 73.3 23.65 73.67 22.95 73.67Z" />
	</g>
</svg>