<svg version="1.2" baseProfile="tiny-ps" xmlns="http://www.w3.org/2000/svg" viewBox="0 0 80 80" width="80" height="80">
	<title>Breezy</title>
	<defs>
		<linearGradient id="grd1" gradientUnits="userSpaceOnUse"  x1="-508.066" y1="477.949" x2="-479.132" y2="449.016">
			<stop offset="0" stop-color="#00ccff"  />
			<stop offset="1" stop-color="#5ddefe"  />
		</linearGradient>
		<linearGradient id="grd2" gradientUnits="userSpaceOnUse"  x1="-536.538" y1="494.956" x2="-500.515" y2="458.933">
			<stop offset="0" stop-color="#d6f2fd"  />
			<stop offset="1" stop-color="#e5f5fd"  />
		</linearGradient>
		<linearGradient id="grd3" gradientUnits="userSpaceOnUse"  x1="-531.513" y1="523.943" x2="-511.487" y2="503.918">
			<stop offset="0" stop-color="#d6f2fd"  />
			<stop offset="1" stop-color="#e5f5fd"  />
		</linearGradient>
		<linearGradient id="grd4" gradientUnits="userSpaceOnUse"  x1="552.466" y1="645.991" x2="575.457" y2="623">
			<stop offset="0" stop-color="#d6f2fd"  />
			<stop offset="1" stop-color="#e5f5fd"  />
		</linearGradient>
		<linearGradient id="grd5" gradientUnits="userSpaceOnUse"  x1="530.487" y1="674.943" x2="550.513" y2="654.918">
			<stop offset="0" stop-color="#d6f2fd"  />
			<stop offset="1" stop-color="#e5f5fd"  />
		</linearGradient>
		<linearGradient id="grd6" gradientUnits="userSpaceOnUse"  x1="251.842" y1="642.904" x2="269.814" y2="624.932">
			<stop offset="0" stop-color="#d6f2fd"  />
			<stop offset="1" stop-color="#e5f5fd"  />
		</linearGradient>
		<linearGradient id="grd7" gradientUnits="userSpaceOnUse"  x1="-54.534" y1="182.991" x2="-31.543" y2="160">
			<stop offset="0" stop-color="#d6f2fd"  />
			<stop offset="1" stop-color="#e5f5fd"  />
		</linearGradient>
		<linearGradient id="grd8" gradientUnits="userSpaceOnUse"  x1="-87.839" y1="211.726" x2="-66.438" y2="190.325">
			<stop offset="0" stop-color="#00ccff"  />
			<stop offset="1" stop-color="#5ddefe"  />
		</linearGradient>
		<linearGradient id="grd9" gradientUnits="userSpaceOnUse"  x1="-65.983" y1="210.84" x2="-45.017" y2="189.875">
			<stop offset="0" stop-color="#d6f2fd"  />
			<stop offset="1" stop-color="#e5f5fd"  />
		</linearGradient>
		<linearGradient id="grd10" gradientUnits="userSpaceOnUse"  x1="704.934" y1="329.949" x2="733.868" y2="301.016">
			<stop offset="0" stop-color="#00ccff"  />
			<stop offset="1" stop-color="#5ddefe"  />
		</linearGradient>
		<linearGradient id="grd11" gradientUnits="userSpaceOnUse"  x1="677.462" y1="344.956" x2="713.485" y2="308.933">
			<stop offset="0" stop-color="#d6f2fd"  />
			<stop offset="1" stop-color="#e5f5fd"  />
		</linearGradient>
		<linearGradient id="grd12" gradientUnits="userSpaceOnUse"  x1="670.161" y1="373.726" x2="691.562" y2="352.325">
			<stop offset="0" stop-color="#00ccff"  />
			<stop offset="1" stop-color="#5ddefe"  />
		</linearGradient>
		<linearGradient id="grd13" gradientUnits="userSpaceOnUse"  x1="692.017" y1="372.84" x2="712.983" y2="351.875">
			<stop offset="0" stop-color="#d6f2fd"  />
			<stop offset="1" stop-color="#e5f5fd"  />
		</linearGradient>
		<linearGradient id="grd14" gradientUnits="userSpaceOnUse"  x1="381.452" y1="202.264" x2="403.475" y2="180.241">
			<stop offset="0" stop-color="#ffbc27"  />
			<stop offset="1" stop-color="#fde252"  />
		</linearGradient>
		<linearGradient id="grd15" gradientUnits="userSpaceOnUse"  x1="401.934" y1="165.949" x2="430.868" y2="137.016">
			<stop offset="0" stop-color="#00ccff"  />
			<stop offset="1" stop-color="#5ddefe"  />
		</linearGradient>
		<linearGradient id="grd16" gradientUnits="userSpaceOnUse"  x1="373.462" y1="181.956" x2="409.485" y2="145.933">
			<stop offset="0" stop-color="#d6f2fd"  />
			<stop offset="1" stop-color="#e5f5fd"  />
		</linearGradient>
		<linearGradient id="grd17" gradientUnits="userSpaceOnUse"  x1="532.452" y1="516.264" x2="554.475" y2="494.241">
			<stop offset="0" stop-color="#ffbc27"  />
			<stop offset="1" stop-color="#fde252"  />
		</linearGradient>
		<linearGradient id="grd18" gradientUnits="userSpaceOnUse"  x1="552.466" y1="494.991" x2="575.457" y2="472">
			<stop offset="0" stop-color="#d6f2fd"  />
			<stop offset="1" stop-color="#e5f5fd"  />
		</linearGradient>
		<linearGradient id="grd19" gradientUnits="userSpaceOnUse"  x1="380.452" y1="666.264" x2="402.475" y2="644.241">
			<stop offset="0" stop-color="#ffbc27"  />
			<stop offset="1" stop-color="#fde252"  />
		</linearGradient>
		<linearGradient id="grd20" gradientUnits="userSpaceOnUse"  x1="400.934" y1="628.949" x2="429.868" y2="600.015">
			<stop offset="0" stop-color="#00ccff"  />
			<stop offset="1" stop-color="#5ddefe"  />
		</linearGradient>
		<linearGradient id="grd21" gradientUnits="userSpaceOnUse"  x1="422.101" y1="608.103" x2="429.507" y2="600.697">
			<stop offset="0" stop-color="#ffbc27"  />
			<stop offset="1" stop-color="#fde252"  />
		</linearGradient>
		<linearGradient id="grd22" gradientUnits="userSpaceOnUse"  x1="367.65" y1="611.566" x2="373.3" y2="605.916">
			<stop offset="0" stop-color="#ffbc27"  />
			<stop offset="1" stop-color="#fde252"  />
		</linearGradient>
		<linearGradient id="grd23" gradientUnits="userSpaceOnUse"  x1="373.462" y1="645.956" x2="409.485" y2="609.933">
			<stop offset="0" stop-color="#d6f2fd"  />
			<stop offset="1" stop-color="#e5f5fd"  />
		</linearGradient>
		<linearGradient id="grd24" gradientUnits="userSpaceOnUse"  x1="-510.004" y1="329.995" x2="-484.009" y2="304.001">
			<stop offset="0" stop-color="#ffbc27"  />
			<stop offset="1" stop-color="#fde252"  />
		</linearGradient>
		<linearGradient id="grd25" gradientUnits="userSpaceOnUse"  x1="-528.548" y1="365.264" x2="-506.525" y2="343.241">
			<stop offset="0" stop-color="#ffbc27"  />
			<stop offset="1" stop-color="#fde252"  />
		</linearGradient>
		<linearGradient id="grd26" gradientUnits="userSpaceOnUse"  x1="-508.534" y1="344.991" x2="-485.543" y2="322">
			<stop offset="0" stop-color="#d6f2fd"  />
			<stop offset="1" stop-color="#e5f5fd"  />
		</linearGradient>
		<linearGradient id="grd27" gradientUnits="userSpaceOnUse"  x1="43.934" y1="38.949" x2="72.868" y2="10.016">
			<stop offset="0" stop-color="#00ccff"  />
			<stop offset="1" stop-color="#5ddefe"  />
		</linearGradient>
		<linearGradient id="grd28" gradientUnits="userSpaceOnUse"  x1="17.462" y1="53.956" x2="53.485" y2="17.933">
			<stop offset="0" stop-color="#d6f2fd"  />
			<stop offset="1" stop-color="#e5f5fd"  />
		</linearGradient>
		<linearGradient id="grd29" gradientUnits="userSpaceOnUse"  x1="29.547" y1="70.72" x2="38.32" y2="61.947">
			<stop offset="0" stop-color="#00ccff"  />
			<stop offset="1" stop-color="#5ddefe"  />
		</linearGradient>
	</defs>
	<style>
		tspan { white-space:pre }
		.shp0 { fill: #dff5fe } 
		.shp1 { fill: url(#grd1) } 
		.shp2 { fill: url(#grd2) } 
		.shp3 { fill: #ffffff } 
		.shp4 { fill: url(#grd3) } 
		.shp5 { fill: url(#grd4) } 
		.shp6 { fill: url(#grd5) } 
		.shp7 { fill: url(#grd6) } 
		.shp8 { fill: url(#grd7) } 
		.shp9 { fill: url(#grd8) } 
		.shp10 { fill: url(#grd9) } 
		.shp11 { fill: url(#grd10) } 
		.shp12 { fill: url(#grd11) } 
		.shp13 { fill: url(#grd12) } 
		.shp14 { fill: url(#grd13) } 
		.shp15 { fill: url(#grd14) } 
		.shp16 { fill: url(#grd15) } 
		.shp17 { fill: url(#grd16) } 
		.shp18 { fill: url(#grd17) } 
		.shp19 { fill: url(#grd18) } 
		.shp20 { fill: url(#grd19) } 
		.shp21 { fill: url(#grd20) } 
		.shp22 { fill: url(#grd21) } 
		.shp23 { fill: url(#grd22) } 
		.shp24 { fill: url(#grd23) } 
		.shp25 { fill: url(#grd24) } 
		.shp26 { fill: url(#grd25) } 
		.shp27 { fill: url(#grd26) } 
		.shp28 { fill: url(#grd27) } 
		.shp29 { fill: url(#grd28) } 
		.shp30 { fill: url(#grd29) } 
	</style>
	<g id="Tornado">
		<path id="tronado" class="shp0" d="M-191 466.85L-230 466.85C-231.1 466.85 -232 465.96 -232 464.87C-232 463.78 -231.1 462.89 -230 462.89L-191 462.89C-189.9 462.89 -189 463.78 -189 464.87C-189 465.96 -189.9 466.85 -191 466.85ZM-196.11 468.83M-224 457.94M-201 476.38L-222 476.38C-223.1 476.38 -224 475.49 -224 474.4C-224 473.31 -223.1 472.42 -222 472.42L-201 472.42C-199.9 472.42 -199 473.31 -199 474.4C-199 475.49 -199.9 476.38 -201 476.38ZM-198 485.91L-216 485.91C-217.1 485.91 -218 485.02 -218 483.93C-218 482.83 -217.1 481.95 -216 481.95L-198 481.95C-196.9 481.95 -196 482.83 -196 483.93C-196 485.02 -196.9 485.91 -198 485.91ZM-204 495.43L-216 495.43C-217.1 495.43 -218 494.55 -218 493.45C-218 492.36 -217.1 491.47 -216 491.47L-204 491.47C-202.9 491.47 -202 492.36 -202 493.45C-202 494.55 -202.9 495.43 -204 495.43ZM-213.5 504.96L-214.5 504.96C-215.6 504.96 -216.5 504.08 -216.5 502.98C-216.5 501.89 -215.6 501 -214.5 501L-213.5 501C-212.4 501 -211.5 501.89 -211.5 502.98C-211.5 504.08 -212.4 504.96 -213.5 504.96Z" />
	</g>
	<g id="Snow Night">
		<path id="moon-small" class="shp1" d="M-493.32 477.95C-501.45 477.95 -508.07 471.34 -508.07 463.21C-508.07 456.67 -503.68 450.85 -497.39 449.04C-497.12 448.97 -496.83 449.04 -496.63 449.24C-496.44 449.44 -496.36 449.73 -496.44 450C-496.78 451.21 -496.96 452.43 -496.96 453.64C-496.96 460.92 -491.04 466.84 -483.76 466.84C-482.55 466.84 -481.32 466.67 -480.12 466.32C-479.85 466.25 -479.56 466.32 -479.36 466.52C-479.16 466.72 -479.08 467.01 -479.16 467.28C-480.97 473.56 -486.79 477.95 -493.32 477.95Z" />
		<path id="cloud-large-night" class="shp2" d="M-500.76 494.96C-494.83 494.96 -490.03 490.24 -490.03 484.41C-490.03 478.59 -494.83 473.87 -500.76 473.87C-500.79 473.87 -500.83 473.88 -500.87 473.88C-501.82 465.47 -509.07 458.93 -517.88 458.93C-524.83 458.93 -530.81 463.01 -533.49 468.87C-533.58 468.87 -533.66 468.86 -533.75 468.86C-541.08 468.86 -547.02 474.7 -547.02 481.91C-547.02 489.11 -541.08 494.96 -533.75 494.96" />
		<path id="cloud-small" class="shp3" d="M-486.82 494.99C-483.08 494.99 -480.05 491.98 -480.05 488.26C-480.05 484.55 -483.08 481.53 -486.82 481.53C-486.84 481.53 -486.87 481.54 -486.89 481.54C-487.49 476.17 -492.07 472 -497.63 472C-502.02 472 -505.8 474.6 -507.49 478.34C-507.54 478.34 -507.59 478.34 -507.65 478.34C-512.28 478.34 -516.03 482.06 -516.03 486.66C-516.03 491.26 -512.28 494.99 -507.65 494.99" />
		<path id="snow-01" class="shp4" d="M-532 505.89C-532 506.98 -532.9 507.87 -534 507.87C-535.1 507.87 -536 506.98 -536 505.89C-536 504.8 -535.1 503.92 -534 503.92C-532.9 503.92 -532 504.8 -532 505.89ZM-522 505.89C-522 506.98 -522.9 507.87 -524 507.87C-525.1 507.87 -526 506.98 -526 505.89C-526 504.8 -525.1 503.92 -524 503.92C-522.9 503.92 -522 504.8 -522 505.89ZM-512 505.89C-512 506.98 -512.9 507.87 -514 507.87C-515.1 507.87 -516 506.98 -516 505.89C-516 504.8 -515.1 503.92 -514 503.92C-512.9 503.92 -512 504.8 -512 505.89ZM-502 505.89C-502 506.98 -502.9 507.87 -504 507.87C-505.1 507.87 -506 506.98 -506 505.89C-506 504.8 -505.1 503.92 -504 503.92C-502.9 503.92 -502 504.8 -502 505.89ZM-532 521.97C-532 523.06 -532.9 523.94 -534 523.94C-535.1 523.94 -536 523.06 -536 521.97C-536 520.88 -535.1 519.99 -534 519.99C-532.9 519.99 -532 520.88 -532 521.97ZM-522 521.97C-522 523.06 -522.9 523.94 -524 523.94C-525.1 523.94 -526 523.06 -526 521.97C-526 520.88 -525.1 519.99 -524 519.99C-522.9 519.99 -522 520.88 -522 521.97ZM-512 521.97C-512 523.06 -512.9 523.94 -514 523.94C-515.1 523.94 -516 523.06 -516 521.97C-516 520.88 -515.1 519.99 -514 519.99C-512.9 519.99 -512 520.88 -512 521.97ZM-502 521.97C-502 523.06 -502.9 523.94 -504 523.94C-505.1 523.94 -506 523.06 -506 521.97C-506 520.88 -505.1 519.99 -504 519.99C-502.9 519.99 -502 520.88 -502 521.97ZM-537 514.07C-537 515.16 -537.9 516.04 -539 516.04C-540.1 516.04 -541 515.16 -541 514.07C-541 512.98 -540.1 512.1 -539 512.1C-537.9 512.1 -537 512.98 -537 514.07ZM-527 514.07C-527 515.16 -527.9 516.04 -529 516.04C-530.1 516.04 -531 515.16 -531 514.07C-531 512.98 -530.1 512.1 -529 512.1C-527.9 512.1 -527 512.98 -527 514.07ZM-517 514.07C-517 515.16 -517.9 516.04 -519 516.04C-520.1 516.04 -521 515.16 -521 514.07C-521 512.98 -520.1 512.1 -519 512.1C-517.9 512.1 -517 512.98 -517 514.07ZM-507 514.07C-507 515.16 -507.9 516.04 -509 516.04C-510.1 516.04 -511 515.16 -511 514.07C-511 512.98 -510.1 512.1 -509 512.1C-507.9 512.1 -507 512.98 -507 514.07Z" />
	</g>
	<g id="Snow">
		<path id="cloud-large" class="shp3" d="M561.24 645.96C567.17 645.96 571.97 641.24 571.97 635.41C571.97 629.59 567.17 624.87 561.24 624.87C561.21 624.87 561.17 624.88 561.13 624.88C560.18 616.47 552.93 609.93 544.12 609.93C537.17 609.93 531.19 614.01 528.51 619.87C528.42 619.87 528.34 619.86 528.25 619.86C520.92 619.86 514.98 625.7 514.98 632.91C514.98 640.11 520.92 645.96 528.25 645.96" />
		<path id="cloud-small-dark" class="shp5" d="M575.18 645.99C578.92 645.99 581.95 642.98 581.95 639.26C581.95 635.55 578.92 632.53 575.18 632.53C575.16 632.53 575.13 632.54 575.11 632.54C574.51 627.17 569.93 623 564.37 623C559.98 623 556.2 625.6 554.51 629.34C554.46 629.34 554.41 629.34 554.35 629.34C549.72 629.34 545.97 633.06 545.97 637.66C545.97 642.26 549.72 645.99 554.35 645.99" />
		<path id="snow-01" class="shp6" d="M530 656.89C530 657.98 529.1 658.87 528 658.87C526.9 658.87 526 657.98 526 656.89C526 655.8 526.9 654.92 528 654.92C529.1 654.92 530 655.8 530 656.89ZM540 656.89C540 657.98 539.1 658.87 538 658.87C536.9 658.87 536 657.98 536 656.89C536 655.8 536.9 654.92 538 654.92C539.1 654.92 540 655.8 540 656.89ZM550 656.89C550 657.98 549.1 658.87 548 658.87C546.9 658.87 546 657.98 546 656.89C546 655.8 546.9 654.92 548 654.92C549.1 654.92 550 655.8 550 656.89ZM560 656.89C560 657.98 559.1 658.87 558 658.87C556.9 658.87 556 657.98 556 656.89C556 655.8 556.9 654.92 558 654.92C559.1 654.92 560 655.8 560 656.89ZM530 672.97C530 674.06 529.1 674.94 528 674.94C526.9 674.94 526 674.06 526 672.97C526 671.88 526.9 670.99 528 670.99C529.1 670.99 530 671.88 530 672.97ZM540 672.97C540 674.06 539.1 674.94 538 674.94C536.9 674.94 536 674.06 536 672.97C536 671.88 536.9 670.99 538 670.99C539.1 670.99 540 671.88 540 672.97ZM550 672.97C550 674.06 549.1 674.94 548 674.94C546.9 674.94 546 674.06 546 672.97C546 671.88 546.9 670.99 548 670.99C549.1 670.99 550 671.88 550 672.97ZM560 672.97C560 674.06 559.1 674.94 558 674.94C556.9 674.94 556 674.06 556 672.97C556 671.88 556.9 670.99 558 670.99C559.1 670.99 560 671.88 560 672.97ZM525 665.07C525 666.16 524.1 667.04 523 667.04C521.9 667.04 521 666.16 521 665.07C521 663.98 521.9 663.1 523 663.1C524.1 663.1 525 663.98 525 665.07ZM535 665.07C535 666.16 534.1 667.04 533 667.04C531.9 667.04 531 666.16 531 665.07C531 663.98 531.9 663.1 533 663.1C534.1 663.1 535 663.98 535 665.07ZM545 665.07C545 666.16 544.1 667.04 543 667.04C541.9 667.04 541 666.16 541 665.07C541 663.98 541.9 663.1 543 663.1C544.1 663.1 545 663.98 545 665.07ZM555 665.07C555 666.16 554.1 667.04 553 667.04C551.9 667.04 551 666.16 551 665.07C551 663.98 551.9 663.1 553 663.1C554.1 663.1 555 663.98 555 665.07Z" />
	</g>
	<g id="Smoke">
		<path id="smoke-01" class="shp0" d="M236.99 629.49C236.99 636.95 230.95 643 223.49 643C216.03 643 209.98 636.95 209.98 629.49C209.98 622.03 216.03 615.99 223.49 615.99C230.95 615.99 236.99 622.03 236.99 629.49Z" />
		<path id="smoke-04" class="shp3" d="M229.96 637.47C229.96 630.57 235.55 624.97 242.45 624.97C249.35 624.97 254.95 630.57 254.95 637.47C254.95 644.37 249.35 649.96 242.45 649.96C235.55 649.96 229.96 644.37 229.96 637.47Z" />
		<path id="smoke-05" class="shp3" d="M269 623.5C269 629.3 264.3 634 258.5 634C252.7 634 248 629.3 248 623.5C248 617.7 252.7 613 258.5 613C264.3 613 269 617.7 269 623.5Z" />
		<path id="smoke-06" class="shp3" d="M261.81 630.86C261.81 635.82 265.84 639.84 270.8 639.84C275.76 639.84 279.79 635.82 279.79 630.86C279.79 625.89 275.76 621.87 270.8 621.87C265.84 621.87 261.81 625.89 261.81 630.86Z" />
		<path id="smoke-02" class="shp0" d="M250.87 620.93C250.87 626.46 246.38 630.94 240.85 630.94C235.32 630.94 230.84 626.46 230.84 620.93C230.84 615.4 235.32 610.92 240.85 610.92C246.38 610.92 250.87 615.4 250.87 620.93Z" />
		<path id="smoke-03" class="shp7" d="M251.84 633.92C251.84 628.96 255.87 624.93 260.83 624.93C265.79 624.93 269.81 628.96 269.81 633.92C269.81 638.88 265.79 642.9 260.83 642.9C255.87 642.9 251.84 638.88 251.84 633.92Z" />
	</g>
	<g id="Sleet">
		<path id="cloud-large" class="shp3" d="M-45.76 182.96C-39.83 182.96 -35.03 178.24 -35.03 172.41C-35.03 166.59 -39.83 161.87 -45.76 161.87C-45.79 161.87 -45.83 161.88 -45.87 161.88C-46.82 153.47 -54.07 146.93 -62.88 146.93C-69.83 146.93 -75.81 151.01 -78.49 156.87C-78.58 156.87 -78.66 156.86 -78.75 156.86C-86.08 156.86 -92.02 162.7 -92.02 169.91C-92.02 177.11 -86.08 182.96 -78.75 182.96" />
		<path id="cloud-small-dark" class="shp8" d="M-31.82 182.99C-28.08 182.99 -25.05 179.98 -25.05 176.26C-25.05 172.55 -28.08 169.53 -31.82 169.53C-31.84 169.53 -31.87 169.54 -31.89 169.54C-32.49 164.17 -37.07 160 -42.63 160C-47.02 160 -50.8 162.6 -52.49 166.34C-52.54 166.34 -52.59 166.34 -52.65 166.34C-57.28 166.34 -61.03 170.06 -61.03 174.66C-61.03 179.26 -57.28 182.99 -52.65 182.99" />
		<path id="rain-03" class="shp9" d="M-85.82 205.7C-86.16 205.7 -86.51 205.61 -86.83 205.43C-87.8 204.86 -88.13 203.62 -87.57 202.65L-80.99 191.2C-80.43 190.23 -79.19 189.9 -78.22 190.46C-77.25 191.02 -76.92 192.27 -77.48 193.24L-84.06 204.68C-84.44 205.33 -85.12 205.7 -85.82 205.7ZM-78.59 211.86C-78.93 211.86 -79.28 211.78 -79.6 211.59C-80.57 211.03 -80.9 209.79 -80.34 208.81L-70.22 191.2C-69.66 190.23 -68.42 189.9 -67.45 190.46C-66.48 191.02 -66.15 192.27 -66.71 193.24L-76.83 210.85C-77.21 211.5 -77.89 211.86 -78.59 211.86Z" />
		<path id="snow-03" class="shp10" d="M-56 189.87C-54.9 189.87 -54 190.79 -54 191.91C-54 193.03 -54.9 193.94 -56 193.94C-57.1 193.94 -58 193.03 -58 191.91C-58 190.79 -57.1 189.87 -56 189.87M-46 189.87C-44.9 189.87 -44 190.79 -44 191.91C-44 193.03 -44.9 193.94 -46 193.94C-47.1 193.94 -48 193.03 -48 191.91C-48 190.79 -47.1 189.87 -46 189.87M-63 208.81C-63 209.93 -63.9 210.84 -65 210.84C-66.1 210.84 -67 209.93 -67 208.81C-67 207.68 -66.1 206.77 -65 206.77C-63.9 206.77 -63 207.68 -63 208.81ZM-62 200.16C-62 199.03 -61.1 198.12 -60 198.12C-58.9 198.12 -58 199.03 -58 200.16C-58 201.28 -58.9 202.19 -60 202.19C-61.1 202.19 -62 201.28 -62 200.16M-48 200.16C-48 201.28 -48.9 202.19 -50 202.19C-51.1 202.19 -52 201.28 -52 200.16C-52 199.03 -51.1 198.12 -50 198.12C-48.9 198.12 -48 199.03 -48 200.16Z" />
	</g>
	<g id="Sleet Night">
		<path id="moon-small" class="shp11" d="M719.68 329.95C711.55 329.95 704.93 323.34 704.93 315.21C704.93 308.67 709.32 302.85 715.61 301.04C715.88 300.97 716.17 301.04 716.37 301.24C716.56 301.44 716.64 301.73 716.56 302C716.22 303.21 716.04 304.43 716.04 305.64C716.04 312.92 721.96 318.84 729.24 318.84C730.45 318.84 731.68 318.67 732.88 318.32C733.15 318.25 733.44 318.32 733.64 318.52C733.84 318.72 733.92 319.01 733.84 319.28C732.03 325.56 726.21 329.95 719.68 329.95Z" />
		<path id="cloud-large-night" class="shp12" d="M713.24 344.96C719.17 344.96 723.97 340.24 723.97 334.41C723.97 328.59 719.17 323.87 713.24 323.87C713.21 323.87 713.17 323.88 713.13 323.88C712.18 315.47 704.93 308.93 696.12 308.93C689.17 308.93 683.19 313.01 680.51 318.87C680.42 318.87 680.34 318.86 680.25 318.86C672.92 318.86 666.98 324.7 666.98 331.91C666.98 339.11 672.92 344.96 680.25 344.96" />
		<path id="cloud-small" class="shp3" d="M727.18 344.99C730.92 344.99 733.95 341.98 733.95 338.26C733.95 334.55 730.92 331.53 727.18 331.53C727.16 331.53 727.13 331.54 727.11 331.54C726.51 326.17 721.93 322 716.37 322C711.98 322 708.2 324.6 706.51 328.34C706.46 328.34 706.41 328.34 706.35 328.34C701.72 328.34 697.97 332.06 697.97 336.66C697.97 341.26 701.72 344.99 706.35 344.99" />
		<path id="rain-03" class="shp13" d="M672.18 367.7C671.84 367.7 671.49 367.61 671.17 367.43C670.2 366.86 669.87 365.62 670.43 364.65L677.01 353.2C677.57 352.23 678.81 351.9 679.78 352.46C680.75 353.02 681.08 354.27 680.52 355.24L673.94 366.68C673.56 367.33 672.88 367.7 672.18 367.7ZM679.41 373.86C679.07 373.86 678.72 373.78 678.4 373.59C677.43 373.03 677.1 371.79 677.66 370.81L687.78 353.2C688.34 352.23 689.58 351.9 690.55 352.46C691.52 353.02 691.85 354.27 691.29 355.24L681.17 372.85C680.79 373.5 680.11 373.86 679.41 373.86Z" />
		<path id="snow-03" class="shp14" d="M702 351.87C703.1 351.87 704 352.79 704 353.91C704 355.03 703.1 355.94 702 355.94C700.9 355.94 700 355.03 700 353.91C700 352.79 700.9 351.87 702 351.87M712 351.87C713.1 351.87 714 352.79 714 353.91C714 355.03 713.1 355.94 712 355.94C710.9 355.94 710 355.03 710 353.91C710 352.79 710.9 351.87 712 351.87M695 370.81C695 371.93 694.1 372.84 693 372.84C691.9 372.84 691 371.93 691 370.81C691 369.68 691.9 368.77 693 368.77C694.1 368.77 695 369.68 695 370.81ZM696 362.16C696 361.03 696.9 360.12 698 360.12C699.1 360.12 700 361.03 700 362.16C700 363.28 699.1 364.19 698 364.19C696.9 364.19 696 363.28 696 362.16M710 362.16C710 363.28 709.1 364.19 708 364.19C706.9 364.19 706 363.28 706 362.16C706 361.03 706.9 360.12 708 360.12C709.1 360.12 710 361.03 710 362.16Z" />
	</g>
	<g id="Severe Thunderstorm Night">
		<path id="lightning" class="shp15" d="M391.63 177.98C389.97 177.98 387.93 179.16 387.1 180.6L381.81 189.79C380.98 191.23 381.65 192.3 383.31 192.18L387.64 191.86C389.29 191.74 390 192.84 389.2 194.3L384.39 203.17C383.6 204.63 384 204.96 385.28 203.91L402.68 189.57C403.97 188.51 403.66 187.72 402 187.8L395.35 188.15C393.69 188.23 393.02 187.12 393.85 185.68L396.77 180.6C397.6 179.16 396.92 177.99 395.26 177.98L391.63 177.98Z" />
		<path id="moon-small" class="shp16" d="M416.68 165.95C408.55 165.95 401.93 159.34 401.93 151.21C401.93 144.67 406.32 138.85 412.61 137.04C412.88 136.97 413.17 137.04 413.37 137.24C413.56 137.44 413.64 137.73 413.56 138C413.22 139.21 413.04 140.43 413.04 141.64C413.04 148.92 418.96 154.84 426.24 154.84C427.45 154.84 428.68 154.67 429.88 154.32C430.15 154.25 430.44 154.32 430.64 154.52C430.84 154.72 430.92 155.01 430.84 155.28C429.03 161.56 423.21 165.95 416.68 165.95Z" />
		<path id="cloud-large-night" class="shp17" d="M409.24 181.96C415.17 181.96 419.97 177.24 419.97 171.41C419.97 165.59 415.17 160.87 409.24 160.87C409.21 160.87 409.17 160.88 409.13 160.88C408.18 152.47 400.93 145.93 392.12 145.93C385.17 145.93 379.19 150.01 376.51 155.87C376.42 155.87 376.34 155.86 376.25 155.86C368.92 155.86 362.98 161.7 362.98 168.91C362.98 176.11 368.92 181.96 376.25 181.96" />
		<path id="cloud-small" class="shp3" d="M423.18 181.99C426.92 181.99 429.95 178.98 429.95 175.26C429.95 171.55 426.92 168.53 423.18 168.53C423.16 168.53 423.13 168.54 423.11 168.54C422.51 163.17 417.93 159 412.37 159C407.98 159 404.2 161.6 402.51 165.34C402.46 165.34 402.41 165.34 402.35 165.34C397.72 165.34 393.97 169.06 393.97 173.66C393.97 178.26 397.72 181.99 402.35 181.99" />
	</g>
	<g id="Severe Thunderstorm">
		<path id="lightning" class="shp18" d="M542.63 491.98C540.97 491.98 538.93 493.16 538.1 494.6L532.81 503.79C531.98 505.23 532.65 506.3 534.31 506.18L538.64 505.86C540.29 505.74 541 506.84 540.2 508.3L535.39 517.17C534.6 518.63 535 518.96 536.28 517.91L553.68 503.57C554.97 502.51 554.66 501.72 553 501.8L546.35 502.15C544.69 502.23 544.02 501.12 544.85 499.68L547.77 494.6C548.6 493.16 547.92 491.99 546.26 491.98L542.63 491.98Z" />
		<path id="cloud-large" class="shp3" d="M561.24 494.96C567.17 494.96 571.97 490.24 571.97 484.41C571.97 478.59 567.17 473.87 561.24 473.87C561.21 473.87 561.17 473.88 561.13 473.88C560.18 465.47 552.93 458.93 544.12 458.93C537.17 458.93 531.19 463.01 528.51 468.87C528.42 468.87 528.34 468.86 528.25 468.86C520.92 468.86 514.98 474.7 514.98 481.91C514.98 489.11 520.92 494.96 528.25 494.96" />
		<path id="cloud-small-dark" class="shp19" d="M575.18 494.99C578.92 494.99 581.95 491.98 581.95 488.26C581.95 484.55 578.92 481.53 575.18 481.53C575.16 481.53 575.13 481.54 575.11 481.54C574.51 476.17 569.93 472 564.37 472C559.98 472 556.2 474.6 554.51 478.34C554.46 478.34 554.41 478.34 554.35 478.34C549.72 478.34 545.97 482.06 545.97 486.66C545.97 491.26 549.72 494.99 554.35 494.99" />
	</g>
	<g id="Scattered Thunderstorm Night">
		<path id="lightning" class="shp20" d="M390.63 641.98C388.97 641.98 386.93 643.16 386.1 644.6L380.81 653.79C379.98 655.23 380.65 656.3 382.31 656.18L386.64 655.86C388.29 655.74 389 656.84 388.2 658.3L383.39 667.17C382.6 668.63 383 668.96 384.28 667.91L401.68 653.57C402.97 652.51 402.66 651.72 401 651.8L394.35 652.15C392.69 652.23 392.02 651.12 392.85 649.68L395.77 644.6C396.6 643.16 395.92 641.99 394.26 641.98L390.63 641.98Z" />
		<path id="moon-small" class="shp21" d="M415.68 628.95C407.55 628.95 400.93 622.34 400.93 614.21C400.93 607.67 405.32 601.85 411.61 600.04C411.88 599.97 412.17 600.04 412.37 600.24C412.56 600.44 412.64 600.73 412.56 601C412.22 602.21 412.04 603.43 412.04 604.64C412.04 611.92 417.96 617.84 425.24 617.84C426.45 617.84 427.68 617.67 428.88 617.32C429.15 617.25 429.44 617.32 429.64 617.52C429.84 617.72 429.92 618.01 429.84 618.28C428.03 624.56 422.21 628.95 415.68 628.95Z" />
		<path id="star-01" class="shp22" d="M426.32 607.32C426.04 608.36 425.57 608.36 425.29 607.32C425.01 606.28 423.92 605.2 422.88 604.92C421.84 604.63 421.84 604.17 422.88 603.89C423.92 603.6 425.01 602.52 425.29 601.48C425.57 600.44 426.04 600.44 426.32 601.48C426.6 602.52 427.69 603.6 428.73 603.89C429.77 604.17 429.77 604.63 428.73 604.92C427.69 605.2 426.6 606.28 426.32 607.32Z" />
		<path id="star-03" class="shp23" d="M370.87 610.97C370.65 611.76 370.3 611.76 370.08 610.97C369.87 610.18 369.04 609.35 368.24 609.13C367.45 608.92 367.45 608.56 368.24 608.35C369.04 608.13 369.87 607.31 370.08 606.51C370.3 605.72 370.65 605.72 370.87 606.51C371.08 607.31 371.91 608.13 372.7 608.35C373.5 608.56 373.5 608.92 372.7 609.13C371.91 609.35 371.08 610.18 370.87 610.97Z" />
		<path id="cloud-large-night" class="shp24" d="M409.24 645.96C415.17 645.96 419.97 641.24 419.97 635.41C419.97 629.59 415.17 624.87 409.24 624.87C409.21 624.87 409.17 624.88 409.13 624.88C408.18 616.47 400.93 609.93 392.12 609.93C385.17 609.93 379.19 614.01 376.51 619.87C376.42 619.87 376.34 619.86 376.25 619.86C368.92 619.86 362.98 625.7 362.98 632.91C362.98 640.11 368.92 645.96 376.25 645.96" />
		<path id="cloud-small" class="shp3" d="M423.18 645.99C426.92 645.99 429.95 642.98 429.95 639.26C429.95 635.55 426.92 632.53 423.18 632.53C423.16 632.53 423.13 632.54 423.11 632.54C422.51 627.17 417.93 623 412.37 623C407.98 623 404.2 625.6 402.51 629.34C402.46 629.34 402.41 629.34 402.35 629.34C397.72 629.34 393.97 633.06 393.97 637.66C393.97 642.26 397.72 645.99 402.35 645.99" />
	</g>
	<g id="Scattered Thunderstorm">
		<path id="sun-small" class="shp25" d="M-484.01 317C-484.01 324.18 -489.83 330 -497.01 330C-504.18 330 -510 324.18 -510 317C-510 309.82 -504.18 304 -497.01 304C-489.83 304 -484.01 309.82 -484.01 317Z" />
		<path id="lightning" class="shp26" d="M-518.37 340.98C-520.03 340.98 -522.07 342.16 -522.9 343.6L-528.19 352.79C-529.02 354.23 -528.35 355.3 -526.69 355.18L-522.36 354.86C-520.71 354.74 -520 355.84 -520.8 357.3L-525.61 366.17C-526.4 367.63 -526 367.96 -524.72 366.91L-507.32 352.57C-506.03 351.51 -506.34 350.72 -508 350.8L-514.65 351.15C-516.31 351.23 -516.98 350.12 -516.15 348.68L-513.23 343.6C-512.4 342.16 -513.08 340.99 -514.74 340.98L-518.37 340.98Z" />
		<path id="cloud-large" class="shp3" d="M-499.76 344.96C-493.83 344.96 -489.03 340.24 -489.03 334.41C-489.03 328.59 -493.83 323.87 -499.76 323.87C-499.79 323.87 -499.83 323.88 -499.87 323.88C-500.82 315.47 -508.07 308.93 -516.88 308.93C-523.83 308.93 -529.81 313.01 -532.49 318.87C-532.58 318.87 -532.66 318.86 -532.75 318.86C-540.08 318.86 -546.02 324.7 -546.02 331.91C-546.02 339.11 -540.08 344.96 -532.75 344.96" />
		<path id="cloud-small-dark" class="shp27" d="M-485.82 344.99C-482.08 344.99 -479.05 341.98 -479.05 338.26C-479.05 334.55 -482.08 331.53 -485.82 331.53C-485.84 331.53 -485.87 331.54 -485.89 331.54C-486.49 326.17 -491.07 322 -496.63 322C-501.02 322 -504.8 324.6 -506.49 328.34C-506.54 328.34 -506.59 328.34 -506.65 328.34C-511.28 328.34 -515.03 332.06 -515.03 336.66C-515.03 341.26 -511.28 344.99 -506.65 344.99" />
	</g>
	<g id="Scattered Showers Night">
		<path id="moon-small" class="shp28" d="M58.68 38.95C50.55 38.95 43.93 32.34 43.93 24.21C43.93 17.67 48.32 11.85 54.61 10.04C54.88 9.97 55.17 10.04 55.37 10.24C55.56 10.44 55.64 10.73 55.56 11C55.22 12.21 55.04 13.43 55.04 14.64C55.04 21.92 60.96 27.84 68.24 27.84C69.45 27.84 70.68 27.67 71.88 27.32C72.15 27.25 72.44 27.32 72.64 27.52C72.84 27.72 72.92 28.01 72.84 28.28C71.03 34.56 65.21 38.95 58.68 38.95Z" />
		<path id="cloud-large-night" class="shp29" d="M53.24 53.96C59.17 53.96 63.97 49.24 63.97 43.41C63.97 37.59 59.17 32.87 53.24 32.87C53.21 32.87 53.17 32.88 53.13 32.88C52.18 24.47 44.93 17.93 36.12 17.93C29.17 17.93 23.19 22.01 20.51 27.87C20.42 27.87 20.34 27.86 20.25 27.86C12.92 27.86 6.98 33.7 6.98 40.91C6.98 48.11 12.92 53.96 20.25 53.96" />
		<path id="cloud-small" class="shp3" d="M67.18 53.99C70.92 53.99 73.95 50.98 73.95 47.26C73.95 43.55 70.92 40.53 67.18 40.53C67.16 40.53 67.13 40.54 67.11 40.54C66.51 35.17 61.93 31 56.37 31C51.98 31 48.2 33.6 46.51 37.34C46.46 37.34 46.41 37.34 46.35 37.34C41.72 37.34 37.97 41.06 37.97 45.66C37.97 50.26 41.72 53.99 46.35 53.99" />
		<path id="rain-06" class="shp30" d="M18.24 70.72C17.9 70.72 17.56 70.64 17.24 70.46C16.27 69.92 15.94 68.73 16.5 67.8L19.41 62.92C19.97 61.99 21.2 61.67 22.17 62.21C23.13 62.75 23.46 63.94 22.9 64.87L19.99 69.75C19.62 70.37 18.94 70.72 18.24 70.72ZM31.97 70.72C31.63 70.72 31.28 70.64 30.97 70.46C30 69.92 29.67 68.73 30.23 67.8L33.14 62.92C33.7 61.99 34.93 61.67 35.89 62.21C36.86 62.75 37.19 63.94 36.63 64.87L33.72 69.75C33.35 70.37 32.67 70.72 31.97 70.72ZM46.71 70.72C46.37 70.72 46.02 70.64 45.7 70.46C44.74 69.92 44.41 68.73 44.96 67.8L47.87 62.92C48.43 61.99 49.66 61.67 50.63 62.21C51.6 62.75 51.92 63.94 51.37 64.87L48.46 69.75C48.08 70.37 47.41 70.72 46.71 70.72Z" />
	</g>
</svg>