<svg version="1.2" baseProfile="tiny-ps" xmlns="http://www.w3.org/2000/svg" viewBox="0 0 80 80" width="80" height="80">
	<title>Breezy</title>
	<defs>
		<linearGradient id="grd1" gradientUnits="userSpaceOnUse"  x1="44.934" y1="31.949" x2="73.868" y2="3.016">
			<stop offset="0" stop-color="#00ccff"  />
			<stop offset="1" stop-color="#5ddefe"  />
		</linearGradient>
		<linearGradient id="grd2" gradientUnits="userSpaceOnUse"  x1="16.462" y1="48.956" x2="52.485" y2="12.933">
			<stop offset="0" stop-color="#d6f2fd"  />
			<stop offset="1" stop-color="#e5f5fd"  />
		</linearGradient>
		<linearGradient id="grd3" gradientUnits="userSpaceOnUse"  x1="21.487" y1="77.943" x2="41.513" y2="57.918">
			<stop offset="0" stop-color="#d6f2fd"  />
			<stop offset="1" stop-color="#e5f5fd"  />
		</linearGradient>
	</defs>
	<style>
		tspan { white-space:pre }
		.shp0 { fill: #dff5fe } 
		.shp1 { fill: url(#grd1) } 
		.shp2 { fill: url(#grd2) } 
		.shp3 { fill: #ffffff } 
		.shp4 { fill: url(#grd3) } 
	</style>
	<g id="Tornado">
		<path id="tronado" class="shp0" d="M-191 466.85L-230 466.85C-231.1 466.85 -232 465.96 -232 464.87C-232 463.78 -231.1 462.89 -230 462.89L-191 462.89C-189.9 462.89 -189 463.78 -189 464.87C-189 465.96 -189.9 466.85 -191 466.85ZM-196.11 468.83M-224 457.94M-201 476.38L-222 476.38C-223.1 476.38 -224 475.49 -224 474.4C-224 473.31 -223.1 472.42 -222 472.42L-201 472.42C-199.9 472.42 -199 473.31 -199 474.4C-199 475.49 -199.9 476.38 -201 476.38ZM-198 485.91L-216 485.91C-217.1 485.91 -218 485.02 -218 483.93C-218 482.83 -217.1 481.95 -216 481.95L-198 481.95C-196.9 481.95 -196 482.83 -196 483.93C-196 485.02 -196.9 485.91 -198 485.91ZM-204 495.43L-216 495.43C-217.1 495.43 -218 494.55 -218 493.45C-218 492.36 -217.1 491.47 -216 491.47L-204 491.47C-202.9 491.47 -202 492.36 -202 493.45C-202 494.55 -202.9 495.43 -204 495.43ZM-213.5 504.96L-214.5 504.96C-215.6 504.96 -216.5 504.08 -216.5 502.98C-216.5 501.89 -215.6 501 -214.5 501L-213.5 501C-212.4 501 -211.5 501.89 -211.5 502.98C-211.5 504.08 -212.4 504.96 -213.5 504.96Z" />
	</g>
	<g id="Snow Night">
		<path id="moon-small" class="shp1" d="M59.68 31.95C51.55 31.95 44.93 25.34 44.93 17.21C44.93 10.67 49.32 4.85 55.61 3.04C55.88 2.97 56.17 3.04 56.37 3.24C56.56 3.44 56.64 3.73 56.56 4C56.22 5.21 56.04 6.43 56.04 7.64C56.04 14.92 61.96 20.84 69.24 20.84C70.45 20.84 71.68 20.67 72.88 20.32C73.15 20.25 73.44 20.32 73.64 20.52C73.84 20.72 73.92 21.01 73.84 21.28C72.03 27.56 66.21 31.95 59.68 31.95Z" />
		<path id="cloud-large-night" class="shp2" d="M52.24 48.96C58.17 48.96 62.97 44.24 62.97 38.41C62.97 32.59 58.17 27.87 52.24 27.87C52.21 27.87 52.17 27.88 52.13 27.88C51.18 19.47 43.93 12.93 35.12 12.93C28.17 12.93 22.19 17.01 19.51 22.87C19.42 22.87 19.34 22.86 19.25 22.86C11.92 22.86 5.98 28.7 5.98 35.91C5.98 43.11 11.92 48.96 19.25 48.96" />
		<path id="cloud-small" class="shp3" d="M66.18 48.99C69.92 48.99 72.95 45.98 72.95 42.26C72.95 38.55 69.92 35.53 66.18 35.53C66.16 35.53 66.13 35.54 66.11 35.54C65.51 30.17 60.93 26 55.37 26C50.98 26 47.2 28.6 45.51 32.34C45.46 32.34 45.41 32.34 45.35 32.34C40.72 32.34 36.97 36.06 36.97 40.66C36.97 45.26 40.72 48.99 45.35 48.99" />
		<path id="snow-01" class="shp4" d="M21 59.89C21 60.98 20.1 61.87 19 61.87C17.9 61.87 17 60.98 17 59.89C17 58.8 17.9 57.92 19 57.92C20.1 57.92 21 58.8 21 59.89ZM31 59.89C31 60.98 30.1 61.87 29 61.87C27.9 61.87 27 60.98 27 59.89C27 58.8 27.9 57.92 29 57.92C30.1 57.92 31 58.8 31 59.89ZM41 59.89C41 60.98 40.1 61.87 39 61.87C37.9 61.87 37 60.98 37 59.89C37 58.8 37.9 57.92 39 57.92C40.1 57.92 41 58.8 41 59.89ZM51 59.89C51 60.98 50.1 61.87 49 61.87C47.9 61.87 47 60.98 47 59.89C47 58.8 47.9 57.92 49 57.92C50.1 57.92 51 58.8 51 59.89ZM21 75.97C21 77.06 20.1 77.94 19 77.94C17.9 77.94 17 77.06 17 75.97C17 74.88 17.9 73.99 19 73.99C20.1 73.99 21 74.88 21 75.97ZM31 75.97C31 77.06 30.1 77.94 29 77.94C27.9 77.94 27 77.06 27 75.97C27 74.88 27.9 73.99 29 73.99C30.1 73.99 31 74.88 31 75.97ZM41 75.97C41 77.06 40.1 77.94 39 77.94C37.9 77.94 37 77.06 37 75.97C37 74.88 37.9 73.99 39 73.99C40.1 73.99 41 74.88 41 75.97ZM51 75.97C51 77.06 50.1 77.94 49 77.94C47.9 77.94 47 77.06 47 75.97C47 74.88 47.9 73.99 49 73.99C50.1 73.99 51 74.88 51 75.97ZM16 68.07C16 69.16 15.1 70.04 14 70.04C12.9 70.04 12 69.16 12 68.07C12 66.98 12.9 66.1 14 66.1C15.1 66.1 16 66.98 16 68.07ZM26 68.07C26 69.16 25.1 70.04 24 70.04C22.9 70.04 22 69.16 22 68.07C22 66.98 22.9 66.1 24 66.1C25.1 66.1 26 66.98 26 68.07ZM36 68.07C36 69.16 35.1 70.04 34 70.04C32.9 70.04 32 69.16 32 68.07C32 66.98 32.9 66.1 34 66.1C35.1 66.1 36 66.98 36 68.07ZM46 68.07C46 69.16 45.1 70.04 44 70.04C42.9 70.04 42 69.16 42 68.07C42 66.98 42.9 66.1 44 66.1C45.1 66.1 46 66.98 46 68.07Z" />
	</g>
</svg>