<svg version="1.2" baseProfile="tiny-ps" xmlns="http://www.w3.org/2000/svg" viewBox="0 0 80 80" width="80" height="80">
	<title>Breezy</title>
	<defs>
		<linearGradient id="grd1" gradientUnits="userSpaceOnUse"  x1="-508.066" y1="477.949" x2="-479.132" y2="449.016">
			<stop offset="0" stop-color="#00ccff"  />
			<stop offset="1" stop-color="#5ddefe"  />
		</linearGradient>
		<linearGradient id="grd2" gradientUnits="userSpaceOnUse"  x1="-536.538" y1="494.956" x2="-500.515" y2="458.933">
			<stop offset="0" stop-color="#d6f2fd"  />
			<stop offset="1" stop-color="#e5f5fd"  />
		</linearGradient>
		<linearGradient id="grd3" gradientUnits="userSpaceOnUse"  x1="-531.513" y1="523.943" x2="-511.487" y2="503.918">
			<stop offset="0" stop-color="#d6f2fd"  />
			<stop offset="1" stop-color="#e5f5fd"  />
		</linearGradient>
		<linearGradient id="grd4" gradientUnits="userSpaceOnUse"  x1="44.466" y1="42.991" x2="67.457" y2="20">
			<stop offset="0" stop-color="#d6f2fd"  />
			<stop offset="1" stop-color="#e5f5fd"  />
		</linearGradient>
		<linearGradient id="grd5" gradientUnits="userSpaceOnUse"  x1="22.487" y1="71.943" x2="42.513" y2="51.918">
			<stop offset="0" stop-color="#d6f2fd"  />
			<stop offset="1" stop-color="#e5f5fd"  />
		</linearGradient>
	</defs>
	<style>
		tspan { white-space:pre }
		.shp0 { fill: #dff5fe } 
		.shp1 { fill: url(#grd1) } 
		.shp2 { fill: url(#grd2) } 
		.shp3 { fill: #ffffff } 
		.shp4 { fill: url(#grd3) } 
		.shp5 { fill: url(#grd4) } 
		.shp6 { fill: url(#grd5) } 
	</style>
	<g id="Tornado">
		<path id="tronado" class="shp0" d="M-191 466.85L-230 466.85C-231.1 466.85 -232 465.96 -232 464.87C-232 463.78 -231.1 462.89 -230 462.89L-191 462.89C-189.9 462.89 -189 463.78 -189 464.87C-189 465.96 -189.9 466.85 -191 466.85ZM-196.11 468.83M-224 457.94M-201 476.38L-222 476.38C-223.1 476.38 -224 475.49 -224 474.4C-224 473.31 -223.1 472.42 -222 472.42L-201 472.42C-199.9 472.42 -199 473.31 -199 474.4C-199 475.49 -199.9 476.38 -201 476.38ZM-198 485.91L-216 485.91C-217.1 485.91 -218 485.02 -218 483.93C-218 482.83 -217.1 481.95 -216 481.95L-198 481.95C-196.9 481.95 -196 482.83 -196 483.93C-196 485.02 -196.9 485.91 -198 485.91ZM-204 495.43L-216 495.43C-217.1 495.43 -218 494.55 -218 493.45C-218 492.36 -217.1 491.47 -216 491.47L-204 491.47C-202.9 491.47 -202 492.36 -202 493.45C-202 494.55 -202.9 495.43 -204 495.43ZM-213.5 504.96L-214.5 504.96C-215.6 504.96 -216.5 504.08 -216.5 502.98C-216.5 501.89 -215.6 501 -214.5 501L-213.5 501C-212.4 501 -211.5 501.89 -211.5 502.98C-211.5 504.08 -212.4 504.96 -213.5 504.96Z" />
	</g>
	<g id="Snow Night">
		<path id="moon-small" class="shp1" d="M-493.32 477.95C-501.45 477.95 -508.07 471.34 -508.07 463.21C-508.07 456.67 -503.68 450.85 -497.39 449.04C-497.12 448.97 -496.83 449.04 -496.63 449.24C-496.44 449.44 -496.36 449.73 -496.44 450C-496.78 451.21 -496.96 452.43 -496.96 453.64C-496.96 460.92 -491.04 466.84 -483.76 466.84C-482.55 466.84 -481.32 466.67 -480.12 466.32C-479.85 466.25 -479.56 466.32 -479.36 466.52C-479.16 466.72 -479.08 467.01 -479.16 467.28C-480.97 473.56 -486.79 477.95 -493.32 477.95Z" />
		<path id="cloud-large-night" class="shp2" d="M-500.76 494.96C-494.83 494.96 -490.03 490.24 -490.03 484.41C-490.03 478.59 -494.83 473.87 -500.76 473.87C-500.79 473.87 -500.83 473.88 -500.87 473.88C-501.82 465.47 -509.07 458.93 -517.88 458.93C-524.83 458.93 -530.81 463.01 -533.49 468.87C-533.58 468.87 -533.66 468.86 -533.75 468.86C-541.08 468.86 -547.02 474.7 -547.02 481.91C-547.02 489.11 -541.08 494.96 -533.75 494.96" />
		<path id="cloud-small" class="shp3" d="M-486.82 494.99C-483.08 494.99 -480.05 491.98 -480.05 488.26C-480.05 484.55 -483.08 481.53 -486.82 481.53C-486.84 481.53 -486.87 481.54 -486.89 481.54C-487.49 476.17 -492.07 472 -497.63 472C-502.02 472 -505.8 474.6 -507.49 478.34C-507.54 478.34 -507.59 478.34 -507.65 478.34C-512.28 478.34 -516.03 482.06 -516.03 486.66C-516.03 491.26 -512.28 494.99 -507.65 494.99" />
		<path id="snow-01" class="shp4" d="M-532 505.89C-532 506.98 -532.9 507.87 -534 507.87C-535.1 507.87 -536 506.98 -536 505.89C-536 504.8 -535.1 503.92 -534 503.92C-532.9 503.92 -532 504.8 -532 505.89ZM-522 505.89C-522 506.98 -522.9 507.87 -524 507.87C-525.1 507.87 -526 506.98 -526 505.89C-526 504.8 -525.1 503.92 -524 503.92C-522.9 503.92 -522 504.8 -522 505.89ZM-512 505.89C-512 506.98 -512.9 507.87 -514 507.87C-515.1 507.87 -516 506.98 -516 505.89C-516 504.8 -515.1 503.92 -514 503.92C-512.9 503.92 -512 504.8 -512 505.89ZM-502 505.89C-502 506.98 -502.9 507.87 -504 507.87C-505.1 507.87 -506 506.98 -506 505.89C-506 504.8 -505.1 503.92 -504 503.92C-502.9 503.92 -502 504.8 -502 505.89ZM-532 521.97C-532 523.06 -532.9 523.94 -534 523.94C-535.1 523.94 -536 523.06 -536 521.97C-536 520.88 -535.1 519.99 -534 519.99C-532.9 519.99 -532 520.88 -532 521.97ZM-522 521.97C-522 523.06 -522.9 523.94 -524 523.94C-525.1 523.94 -526 523.06 -526 521.97C-526 520.88 -525.1 519.99 -524 519.99C-522.9 519.99 -522 520.88 -522 521.97ZM-512 521.97C-512 523.06 -512.9 523.94 -514 523.94C-515.1 523.94 -516 523.06 -516 521.97C-516 520.88 -515.1 519.99 -514 519.99C-512.9 519.99 -512 520.88 -512 521.97ZM-502 521.97C-502 523.06 -502.9 523.94 -504 523.94C-505.1 523.94 -506 523.06 -506 521.97C-506 520.88 -505.1 519.99 -504 519.99C-502.9 519.99 -502 520.88 -502 521.97ZM-537 514.07C-537 515.16 -537.9 516.04 -539 516.04C-540.1 516.04 -541 515.16 -541 514.07C-541 512.98 -540.1 512.1 -539 512.1C-537.9 512.1 -537 512.98 -537 514.07ZM-527 514.07C-527 515.16 -527.9 516.04 -529 516.04C-530.1 516.04 -531 515.16 -531 514.07C-531 512.98 -530.1 512.1 -529 512.1C-527.9 512.1 -527 512.98 -527 514.07ZM-517 514.07C-517 515.16 -517.9 516.04 -519 516.04C-520.1 516.04 -521 515.16 -521 514.07C-521 512.98 -520.1 512.1 -519 512.1C-517.9 512.1 -517 512.98 -517 514.07ZM-507 514.07C-507 515.16 -507.9 516.04 -509 516.04C-510.1 516.04 -511 515.16 -511 514.07C-511 512.98 -510.1 512.1 -509 512.1C-507.9 512.1 -507 512.98 -507 514.07Z" />
	</g>
	<g id="Snow">
		<path id="cloud-large" class="shp3" d="M53.24 42.96C59.17 42.96 63.97 38.24 63.97 32.41C63.97 26.59 59.17 21.87 53.24 21.87C53.21 21.87 53.17 21.88 53.13 21.88C52.18 13.47 44.93 6.93 36.12 6.93C29.17 6.93 23.19 11.01 20.51 16.87C20.42 16.87 20.34 16.86 20.25 16.86C12.92 16.86 6.98 22.7 6.98 29.91C6.98 37.11 12.92 42.96 20.25 42.96" />
		<path id="cloud-small-dark" class="shp5" d="M67.18 42.99C70.92 42.99 73.95 39.98 73.95 36.26C73.95 32.55 70.92 29.53 67.18 29.53C67.16 29.53 67.13 29.54 67.11 29.54C66.51 24.17 61.93 20 56.37 20C51.98 20 48.2 22.6 46.51 26.34C46.46 26.34 46.41 26.34 46.35 26.34C41.72 26.34 37.97 30.06 37.97 34.66C37.97 39.26 41.72 42.99 46.35 42.99" />
		<path id="snow-01" class="shp6" d="M22 53.89C22 54.98 21.1 55.87 20 55.87C18.9 55.87 18 54.98 18 53.89C18 52.8 18.9 51.92 20 51.92C21.1 51.92 22 52.8 22 53.89ZM32 53.89C32 54.98 31.1 55.87 30 55.87C28.9 55.87 28 54.98 28 53.89C28 52.8 28.9 51.92 30 51.92C31.1 51.92 32 52.8 32 53.89ZM42 53.89C42 54.98 41.1 55.87 40 55.87C38.9 55.87 38 54.98 38 53.89C38 52.8 38.9 51.92 40 51.92C41.1 51.92 42 52.8 42 53.89ZM52 53.89C52 54.98 51.1 55.87 50 55.87C48.9 55.87 48 54.98 48 53.89C48 52.8 48.9 51.92 50 51.92C51.1 51.92 52 52.8 52 53.89ZM22 69.97C22 71.06 21.1 71.94 20 71.94C18.9 71.94 18 71.06 18 69.97C18 68.88 18.9 67.99 20 67.99C21.1 67.99 22 68.88 22 69.97ZM32 69.97C32 71.06 31.1 71.94 30 71.94C28.9 71.94 28 71.06 28 69.97C28 68.88 28.9 67.99 30 67.99C31.1 67.99 32 68.88 32 69.97ZM42 69.97C42 71.06 41.1 71.94 40 71.94C38.9 71.94 38 71.06 38 69.97C38 68.88 38.9 67.99 40 67.99C41.1 67.99 42 68.88 42 69.97ZM52 69.97C52 71.06 51.1 71.94 50 71.94C48.9 71.94 48 71.06 48 69.97C48 68.88 48.9 67.99 50 67.99C51.1 67.99 52 68.88 52 69.97ZM17 62.07C17 63.16 16.1 64.04 15 64.04C13.9 64.04 13 63.16 13 62.07C13 60.98 13.9 60.1 15 60.1C16.1 60.1 17 60.98 17 62.07ZM27 62.07C27 63.16 26.1 64.04 25 64.04C23.9 64.04 23 63.16 23 62.07C23 60.98 23.9 60.1 25 60.1C26.1 60.1 27 60.98 27 62.07ZM37 62.07C37 63.16 36.1 64.04 35 64.04C33.9 64.04 33 63.16 33 62.07C33 60.98 33.9 60.1 35 60.1C36.1 60.1 37 60.98 37 62.07ZM47 62.07C47 63.16 46.1 64.04 45 64.04C43.9 64.04 43 63.16 43 62.07C43 60.98 43.9 60.1 45 60.1C46.1 60.1 47 60.98 47 62.07Z" />
	</g>
</svg>