<svg version="1.2" baseProfile="tiny-ps" xmlns="http://www.w3.org/2000/svg" viewBox="0 0 80 80" width="80" height="80">
	<title>Breezy</title>
	<style>
		tspan { white-space:pre }
		.shp0 { fill: #dff5fe } 
	</style>
	<g id="Tornado">
		<path id="tronado" class="shp0" d="M60 22.85L21 22.85C19.9 22.85 19 21.96 19 20.87C19 19.78 19.9 18.89 21 18.89L60 18.89C61.1 18.89 62 19.78 62 20.87C62 21.96 61.1 22.85 60 22.85ZM54.89 24.83M27 13.94M50 32.38L29 32.38C27.9 32.38 27 31.49 27 30.4C27 29.31 27.9 28.42 29 28.42L50 28.42C51.1 28.42 52 29.31 52 30.4C52 31.49 51.1 32.38 50 32.38ZM53 41.91L35 41.91C33.9 41.91 33 41.02 33 39.93C33 38.83 33.9 37.95 35 37.95L53 37.95C54.1 37.95 55 38.83 55 39.93C55 41.02 54.1 41.91 53 41.91ZM47 51.43L35 51.43C33.9 51.43 33 50.55 33 49.45C33 48.36 33.9 47.47 35 47.47L47 47.47C48.1 47.47 49 48.36 49 49.45C49 50.55 48.1 51.43 47 51.43ZM37.5 60.96L36.5 60.96C35.4 60.96 34.5 60.08 34.5 58.98C34.5 57.89 35.4 57 36.5 57L37.5 57C38.6 57 39.5 57.89 39.5 58.98C39.5 60.08 38.6 60.96 37.5 60.96Z" />
	</g>
</svg>